<?xml version="1.0" encoding="UTF-8" standalone="no"?>
<!-- Created with Inkscape (http://www.inkscape.org/) -->

<svg
   version="1.1"
   id="svg2"
   xml:space="preserve"
   width="600"
   height="533.33331"
   viewBox="0 0 600 533.33331"
   sodipodi:docname="1601.m10.i308.n028.S.c12.283305227 Soccer -Trademark--Image.eps"
   inkscape:version="1.1.2 (0a00cf5339, 2022-02-04)"
   xmlns:inkscape="http://www.inkscape.org/namespaces/inkscape"
   xmlns:sodipodi="http://sodipodi.sourceforge.net/DTD/sodipodi-0.dtd"
   xmlns="http://www.w3.org/2000/svg"
   xmlns:svg="http://www.w3.org/2000/svg"><defs
     id="defs6" /><sodipodi:namedview
     id="namedview4"
     pagecolor="#ffffff"
     bordercolor="#666666"
     borderopacity="1.0"
     inkscape:pageshadow="2"
     inkscape:pageopacity="0.0"
     inkscape:pagecheckerboard="0"
     showgrid="false"
     showguides="true"
     inkscape:guide-bbox="true"
     inkscape:zoom="0.78093753"
     inkscape:cx="99.239692"
     inkscape:cy="250.34013"
     inkscape:window-width="1920"
     inkscape:window-height="1043"
     inkscape:window-x="1920"
     inkscape:window-y="0"
     inkscape:window-maximized="1"
     inkscape:current-layer="g8" /><g
     id="g8"
     inkscape:groupmode="layer"
     inkscape:label="ink_ext_XXXXXX"
     transform="matrix(1.3333333,0,0,-1.3333333,0,533.33333)"><g
       id="g10"
       transform="matrix(0.1,0,0,0.1,-14.130558,-0.00358025)"><path
         style="fill:#000000;fill-opacity:1;stroke-width:1.59424;stroke-linecap:round;paint-order:stroke fill markers"
         d=""
         id="path3511"
         transform="matrix(7.5000002,0,0,-7.5000002,0,4000.0001)" /><g
         id="g29045"><g
           id="g28679"
           transform="matrix(2.5728155,0,0,2.5728155,-3270.206,-3391.885)"><path
             d="m 2200.5401,2726.4823 c 148.56,0 284.06,-78.59 358.97,-203.94 l 163.49,-0.01 c 18.03,0 32.13,-15.58 30.29,-33.56 h 0.04 l -84.16,-824.3599 c -0.91,-8.989 -5.66,-16.66 -12.44,-21.578 l 0.02,-0.043 -438.3,-318.821 c -11.13,-8.058 -25.9,-7.519 -36.33,0.364 l -437.81,318.457 c -7.87,5.703 -12.23,14.472 -12.6,23.5 l -83.98,822.5909 c -1.82,18.08 12.32,33.9 31.8,33.45 l 162.01,0.01 c 74.9,125.33 210.47,203.94 359,203.94"
             style="fill:#ffffff;fill-opacity:1;fill-rule:evenodd;stroke:none"
             id="path106" /><path
             d="m 2200.5201,1348.9244 -438.3,318.828 -84.16,824.3499 h 1044.92 l -84.16,-824.3499 -438.3,-318.828"
             style="fill:#000000;fill-opacity:1;fill-rule:evenodd;stroke:none"
             id="path108" /><path
             d="m 2200.5201,1414.9834 349.69,288.84 71.91,788.2789 h -843.2 l 71.91,-788.2789 349.69,-288.84"
             style="fill:#ffffff;fill-opacity:1;fill-rule:evenodd;stroke:none"
             id="path110" /><path
             d="m 2200.5201,1459.2134 265.53,258.418 62.36,774.4709 h -655.78 l 62.36,-774.4709 265.53,-258.418"
             style="fill:#58448f;fill-opacity:1;fill-rule:evenodd;stroke:none"
             id="path112" /><path
             d="m 2200.5201,1536.5614 160.98,164.781 h -321.96 z"
             style="fill:#ffffff;fill-opacity:1;fill-rule:evenodd;stroke:none"
             id="path114" /><path
             d="m 2200.5201,1936.9633 c 204.65,0 371.56,166.909 371.56,371.559 0,204.65 -166.91,371.56 -371.56,371.56 -204.65,0 -371.56,-166.91 -371.56,-371.56 0,-204.65 166.91,-371.559 371.56,-371.559"
             style="fill:#ffffff;fill-opacity:1;fill-rule:evenodd;stroke:none"
             id="path120" /><path
             d="m 2549.0601,2264.8723 c -0.47,-4.84 -1.08,-9.66 -1.8,-14.47 -1.33,-8.66 -3.09,-17.27 -5.27,-25.78 -2.11,-8.26 -4.61,-16.43 -7.52,-24.45 -6.66,-17.93 -19.28,-34.65 -33.48,-47.59 v -0.01 c -12.25,-10.97 -26.93,-20.57 -42.34,-24.17 l -7.07,6.93 -20.9,20.45 -37.99,37.19 c 13.32,46.6 15.55,97 6.27,144.52 10.74,8.12 21.42,16.61 31.72,25.58 7.19,6.27 14.2,12.77 20.9,19.53 9.47,9.58 18.36,19.66 26.29,30.35 10.7,-2.4 20.72,-9.8 29.92,-17.58 18.71,-15.8 28.51,-27.41 34.2,-43.15 2.32,-6.42 3.98,-13.52 5.27,-21.88 0.61,-3.99 1.15,-8.27 1.64,-12.9 l 0.16,-1.63 c 1.68,-16.81 1.66,-33.92 0,-50.94 z m -45.43,-146.38 c -7.6,-11.31 -30.02,-40.22 -52.05,-63.96 -7.19,-7.73 -14.32,-14.91 -20.9,-20.75 -9.77,-8.68 -18.26,-14.41 -23.83,-14.62 8.12,8.12 16.31,17.33 23.83,27.26 8.08,10.7 15.37,22.25 20.9,34.2 5.31,11.52 8.98,23.4 10.13,35.24 27.07,6.38 51.92,27.36 68.4,49.79 z m -115.02,-98.71 -2.68,-2.45 c -9.35,-8.46 -29.14,-17.41 -46.52,-23.94 -8.38,-3.14 -16.21,-5.74 -22.03,-7.43 -10,-2.9 -63.36,-13.71 -70.82,-9.99 v -0.01 c -6.23,3.18 -12.33,6.75 -18.19,10.64 -15.41,10.25 -29.33,22.87 -40.37,37.53 -2.5,3.34 -4.86,6.78 -7.07,10.33 l 7.07,10.28 27.83,40.5 -0.02,0.01 12.56,24.64 1.86,3.65 c 4.02,8.85 7.64,17.71 10.86,26.56 33.83,3.99 66.68,11.48 98.32,22.97 15.37,5.57 30.47,12.1 45.21,19.63 l 46.06,-45.05 18.38,-17.98 c -0.59,-16.16 -8.03,-33.78 -18.38,-50.33 -12.13,-19.39 -28.24,-37.28 -42.07,-49.56 z m -49.2,-42.43 c -35.33,-14.88 -72.68,-24.02 -111.04,-26.951 -1.5,-0.11 -3,-0.227 -4.53,-0.328 l 4.53,2.769 16.66,10.2 c 7.52,2.6 42.89,-2.56 94.38,16.55 16.93,6.29 35.62,15.19 55.62,27.87 l 1.04,-0.26 c -18.17,-11.66 -37.11,-21.63 -56.66,-29.85 z m -151.41,-24.58 c -15.04,-2.031 -30.47,-1.07 -45.9,1.4 -8.84,1.42 -17.69,3.32 -26.48,5.45 l -52.75,17.27 -0.75,0.35 c -7.61,3.69 -23.2,12.97 -32.81,20.93 -3.91,3.23 -6.84,6.23 -7.83,8.56 -3.3,7.69 3.81,29.9 6.7,37.77 l 1.13,-0.57 c 10.12,-5.2 21.19,-9.16 32.81,-12.06 25.55,-6.37 53.71,-7.57 79.98,-5.25 9.05,0.8 17.87,2.02 26.29,3.58 5.51,-9.39 12.13,-18.17 19.61,-26.25 11.76,-12.73 25.61,-23.72 40.37,-32.68 1.12,-0.67 2.23,-1.34 3.34,-1.99 -1.11,-0.75 -2.22,-1.48 -3.34,-2.17 -12.91,-8.08 -26.48,-12.49 -40.37,-14.34 z m -173.47,91.96 c -3.87,-11.43 -6.33,-23.35 -6.1,-35.46 -0.72,-0.04 -1.4,-0.06 -2.09,-0.07 -4.98,-0.06 -13.3,4.94 -22.42,11.87 -16.23,12.34 -34.98,30.86 -41.97,38.1 -2.48,2.58 -4.94,5.22 -7.35,7.88 -15.07,16.65 -28.81,34.94 -40.89,54.85 -8.77,14.41 -28.97,55.8 -37.64,81.93 -2.5,7.55 -4.03,13.83 -4.06,17.82 l 4.06,9.25 1.11,2.54 c 19.4,-26.67 46.43,-45.23 77.42,-55.45 1.1,-0.36 2.21,-0.72 3.32,-1.06 6.88,-31.12 24.69,-61.93 46,-88.68 9.71,-12.19 20.16,-23.54 30.61,-33.68 l 2.65,-2.56 c -0.94,-2.41 -1.83,-4.82 -2.65,-7.28 z m -167.02,197.48 c -0.37,1.98 -0.74,3.97 -1.07,5.96 -1.7,10.04 -2.97,20.1 -3.81,30.17 0.94,-7.15 2.21,-13.98 3.81,-20.32 1.09,-4.35 2.36,-8.47 3.79,-12.28 -0.96,-1.16 -1.88,-2.34 -2.72,-3.53 z m -1.07,122.9 8.05,39.26 c 0.48,-1.51 1.01,-3 1.58,-4.47 0.62,-1.61 1.29,-3.19 1.99,-4.74 -0.66,-1.05 -1.33,-2.17 -1.99,-3.38 -3.93,-7.33 -7.31,-17.42 -9.63,-27.02 -0.7,-2.86 -1.29,-5.68 -1.8,-8.36 z m 75.51,170.14 c 4.06,5.01 8.28,9.93 12.65,14.73 14.79,16.29 31.25,31.39 49.32,45.03 9.57,7.23 19.61,14.04 30.06,20.4 l 0.55,0.32 c 0,0 10.33,4.56 14.78,4.96 6.06,0.53 12.4,-0.11 18.15,-0.75 -5.94,-22.96 -5.26,-47.11 -0.53,-70.2 -6.02,-5.06 -11.9,-10.27 -17.62,-15.62 -5.06,-4.72 -9.98,-9.56 -14.78,-14.5 -10.84,-11.15 -21.06,-22.86 -30.61,-35.12 -12.52,-16.09 -23.87,-33.11 -33.93,-51.02 l -15.39,-3.86 -27.44,-6.88 c -13.53,-4.1 -26.89,-11.03 -38.87,-18.69 -2.85,7.2 -6.83,17.67 -5.8,25.56 13.54,37.94 33.52,73.76 59.46,105.64 z m 140.17,104.69 c 5.14,2.15 10.3,4.16 15.47,6.07 -5.35,-2.79 -10.55,-5.76 -15.47,-8.95 -2.5,-1.63 -4.94,-3.31 -7.32,-5.04 -2.68,0.44 -5.39,0.78 -8.13,1 5.12,2.44 10.28,4.76 15.45,6.92 z m 58.87,9.56 c 7.01,2.07 14.06,3.86 21.11,5.27 15.39,3.07 30.8,4.36 45.9,3.01 13.81,-1.24 27.37,-4.7 40.37,-11.03 2.72,-1.31 5.39,-2.75 8.05,-4.32 h 0.02 c 15.43,-7.71 29.51,-21.43 41.48,-34.27 -17.77,-11.32 -34.53,-24.12 -49.55,-38.72 -10.33,-10.03 -19.84,-20.93 -28.32,-32.75 -3.96,1.65 -7.99,3.2 -12.05,4.61 -14.88,5.21 -30.27,8.83 -45.9,11.02 -26.34,3.68 -53.39,3.28 -79.98,-0.55 l -2.36,-0.35 c -4.71,22.98 -5.37,46.53 1.31,69.16 l 1.05,0.79 c 17.29,12.6 38.15,21.95 58.87,28.12 z m 107.38,17.79 c 19.98,-2.2 50.65,-8.25 57.19,-9.87 h 0.02 c 18.73,-5.38 36.64,-11.46 53.83,-18.58 32.83,-13.6 63.01,-30.98 91.27,-54.48 5.19,-4.33 10.33,-8.86 15.41,-13.62 -1.17,-0.17 -2.33,-0.4 -3.46,-0.67 v -0.01 l -11.95,-4.92 -5.2,-2.14 c -26.33,18.28 -55.45,32.3 -86.07,41.12 -4.57,1.31 -9.16,2.51 -13.79,3.59 -52.6,12.27 -18.46,-5.36 -57.91,28.17 -7.93,6.74 -16.17,12.72 -24.65,17.76 -3.09,3.06 -8.71,5.84 -14.69,8.15 -6.17,2.39 -12.69,4.28 -17.16,5.5 1.73,1.19 8.43,0.96 17.16,0 z m 163.23,-319.15 c -16.14,10.14 -33.83,19.32 -52.19,27.24 -26.02,11.24 -53.4,19.95 -79.71,25.43 l -21.85,65.11 -9.48,21.44 -18.22,41.25 c 4.96,6.93 10.22,13.49 15.76,19.69 0.67,0.74 1.49,1.62 2.46,2.62 12.78,13.08 51.19,47.18 61.68,49.59 10.98,-1.11 22.01,-2.96 32.99,-5.54 4.47,-1.04 10.1,-2.66 16.37,-4.71 27.63,-9.02 68.12,-26.31 81.11,-39.56 2.99,-3.05 6.49,-8.13 10.16,-14.26 7.36,-12.31 15.33,-28.83 20.9,-41.65 2.3,-5.35 4.21,-10.07 5.48,-13.56 4.2,-11.6 14.61,-49.39 10.81,-60.13 -1.51,-4.29 -7.86,-11.69 -16.29,-20.24 -6.2,-6.24 -13.5,-13.08 -20.9,-19.75 -16.04,-14.43 -32.56,-28.04 -39.08,-32.97 z m -163.23,-177.82 c -14.24,19.88 -27.81,40.37 -40.37,61.4 -8.57,14.37 -16.66,28.99 -24.2,43.85 l 24.2,30.23 40.37,50.44 25.94,32.42 c 22.19,-4.29 46.47,-12.11 68.63,-20.84 h 0.02 c 5.45,-2.16 10.96,-4.46 16.45,-6.88 16.21,-7.15 32.28,-15.37 46.62,-24.59 9.26,-46.61 7.05,-95.97 -6.33,-141.59 -10.94,-5.63 -21.89,-10.66 -32.91,-15.12 -2.46,-1 -4.92,-1.95 -7.38,-2.88 -9.06,-3.45 -18.2,-6.54 -27.44,-9.26 v -0.01 c -23.09,-6.74 -46.82,-11.38 -70.96,-14.39 -4.26,5.68 -8.48,11.43 -12.64,17.22 z m -259.61,184.99 c 4.67,-11.65 9.63,-22.95 15.16,-34.03 5.1,-10.2 10.7,-20.21 16.99,-30.1 -6.03,-6.49 -11.7,-13.28 -16.99,-20.33 -18.5,-24.66 -32.54,-52.47 -43.22,-81.29 -2.05,0.65 -4.08,1.32 -6.1,2.03 -12.24,4.33 -23.75,10.04 -34.43,17.46 h -0.02 c -11.5,11.51 -25.59,18.14 -36.02,37 -3.61,6.53 -6.34,18.04 -8.06,31.85 -2.64,21.29 -2.83,48.04 0,70.43 2.4,18.84 6.93,34.58 13.96,41.39 9.44,9.14 29.01,16.43 41.25,20.74 l 23.32,5.89 16.88,4.27 c 3.63,-22.21 9.45,-44.17 17.28,-65.31 z m 36.08,134.53 c 1.72,2 5.25,6.03 9.69,10.93 4.35,4.83 9.59,10.49 14.78,15.9 9.71,10.13 19.32,19.37 22.93,20.58 2.77,0.92 6.11,1.69 9.88,2.31 20.78,3.45 54.09,2.69 69.81,1.05 2.34,-0.25 5.9,-0.73 10.17,-1.44 13.25,-2.18 33.36,-6.28 45.9,-10.67 4.85,-1.69 8.58,-3.44 10.33,-5.13 4.91,-9.95 9.63,-20.04 14.16,-30.27 5.67,-12.78 10.96,-25.62 15.88,-38.6 6.84,-18 12.95,-36.26 18.23,-54.87 l -18.23,-22.74 -40.37,-50.39 -34.18,-42.67 c -3.9,0 -7.81,0.05 -11.72,0.12 -26.7,0.49 -53.38,2.61 -79.98,5.72 -10.95,1.28 -21.89,2.72 -32.81,4.29 -4.94,0.71 -9.86,1.43 -14.78,2.18 l -1.55,0.24 c -11.56,17.83 -21.25,36.54 -29.06,55.96 -9.86,24.56 -16.74,50.24 -20.63,76.75 -0.41,4.36 9.99,19.69 20.63,34.02 8.85,11.88 17.85,23.07 20.94,26.72 z m 199.74,-398.14 c -1.91,-3.82 -9.23,-15.91 -16.58,-26.97 -6.54,-9.87 -13.08,-18.94 -15.82,-20.58 -4.28,-2.57 -16.39,-3.87 -30.08,-4.44 -19.68,-0.81 -42.67,-0.06 -50.58,0.82 -11.49,1.28 -21.08,2.73 -29.4,4.69 -13.26,3.11 -23.32,7.5 -32.81,14.49 -4.96,3.65 -9.77,8.01 -14.78,13.26 -4.56,4.76 -9.28,10.23 -14.48,16.59 -3.69,4.52 -9.65,12.63 -16.13,22.29 -15.29,22.74 -33.71,54.09 -33.26,67.4 0.33,9.53 19.74,46.13 25.35,55.93 2.34,4.7 5,9.32 7.91,13.86 7.93,12.35 17.66,23.98 27.56,34.46 l 3.05,-0.45 c 4.9,-0.73 9.84,-1.46 14.78,-2.15 10.9,-1.53 21.86,-2.96 32.81,-4.22 26.6,-3.04 53.32,-5.15 79.98,-5.61 3.19,-0.05 6.39,-0.09 9.57,-0.09 10.94,-21.9 23.17,-43.26 36.33,-64.06 12.7,-20.06 26.25,-39.57 40.37,-58.49 l 1.35,-1.8 -1.35,-2.93 -23.81,-51.99 z m 255.47,464.57 c 30.18,-29.73 54.1,-67.5 70.73,-106.27 4.25,-9.95 8.24,-19.37 11.21,-28.75 2.85,-8.95 4.8,-17.86 5.27,-27.15 0.12,-2.68 0.14,-5.41 0,-8.17 -0.22,-4.24 -0.74,-8.57 -1.66,-13.03 l -3.61,3.98 -25.67,28.34 -0.02,-0.01 c -7.44,8.94 -25.11,17.85 -35.45,20.23 0.1,20.38 -4.51,40.51 -11.66,60.16 -4.76,13.2 -10.78,26.3 -17.61,38.98 -5.28,9.78 -11.04,19.3 -17.11,28.47 l 11.25,4.44 5.86,-0.5 z m 96.7,-95.32 c -2.42,5.67 -5,11.29 -7.69,16.82 -0.59,1.22 -1.19,2.43 -1.8,3.64 -1.72,3.42 -3.46,6.81 -5.27,10.16 -22.97,42.77 -53.75,80.72 -90.41,111.96 -6.78,5.77 -13.75,11.31 -20.9,16.6 -27.81,20.58 -58.48,37.5 -91.27,50.12 -34.87,13.39 -72.17,21.9 -111.04,24.66 -9.2,0.66 -18.47,1.01 -27.85,1.01 -4.2,0 -8.36,-0.09 -12.52,-0.21 -15.54,-0.5 -30.86,-1.89 -45.9,-4.16 -27.73,-4.2 -54.49,-11.36 -79.98,-21.11 -11.19,-4.29 -22.15,-9.08 -32.81,-14.34 -5,-2.46 -9.92,-5.02 -14.78,-7.69 -10.51,-5.76 -20.73,-11.98 -30.61,-18.65 -17.52,-11.84 -34,-25.09 -49.32,-39.55 -31.7,-29.92 -58.34,-65.14 -78.53,-104.22 -3.4,-6.59 -6.6,-13.29 -9.63,-20.1 -21.43,-48.09 -33.34,-101.35 -33.34,-157.37 0,-56.04 11.91,-109.28 33.34,-157.37 3.03,-6.8 6.23,-13.5 9.63,-20.09 20.19,-39.09 46.83,-74.3 78.53,-104.23 15.32,-14.46 31.8,-27.72 49.32,-39.54 9.88,-6.68 20.1,-12.9 30.61,-18.65 4.86,-2.68 9.78,-5.23 14.78,-7.7 10.66,-5.26 21.62,-10.061 32.81,-14.35 25.49,-9.738 52.25,-16.898 79.98,-21.101 15.04,-2.27 30.36,-3.668 45.9,-4.161 4.16,-0.136 8.32,-0.218 12.52,-0.218 9.38,0 18.65,0.351 27.85,1.011 38.87,2.77 76.17,11.27 111.04,24.68 32.79,12.609 63.46,29.539 91.27,50.109 7.15,5.3 14.12,10.84 20.9,16.61 36.66,31.24 67.44,69.18 90.41,111.94 1.81,3.36 3.55,6.76 5.27,10.18 0.61,1.21 1.21,2.42 1.8,3.64 2.69,5.53 5.27,11.13 7.69,16.81 20.06,46.78 31.17,98.31 31.17,152.43 0,54.12 -11.11,105.64 -31.17,152.43"
             style="fill:#000000;fill-opacity:1;fill-rule:nonzero;stroke:none"
             id="path138" /><path
             style="fill:#58448f;fill-opacity:1;stroke:#58448f;stroke-width:1.1;stroke-linecap:round;stroke-miterlimit:4;stroke-dasharray:none;stroke-opacity:1;paint-order:stroke fill markers"
             d="m 257.94317,241.06441 c -2.04458,-0.74974 -3.99967,-1.7953 -4.88195,-2.61081 -0.22009,-0.20343 -0.83234,-0.72438 -1.36055,-1.15766 -1.80696,-1.48223 -2.88246,-2.78676 -3.39275,-4.11527 -0.7258,-1.88958 -1.10342,-5.25712 -1.02389,-9.13106 0.0971,-4.73005 0.79503,-7.89043 2.03536,-9.21644 0.68782,-0.73533 2.06338,-1.50943 4.15192,-2.3365 0.81119,-0.32124 1.89171,-0.64173 3.82661,-1.135 1.48293,-0.37804 2.73548,-0.67427 2.78344,-0.65828 0.048,0.016 0.20401,0.62146 0.34676,1.34551 0.58852,2.98499 1.53129,6.10785 2.62027,8.67938 0.77778,1.83667 2.19836,4.66723 3.04443,6.06614 l 0.61939,1.02411 -0.22285,0.2647 c -0.12258,0.14559 -0.4961,0.5851 -0.83007,0.97669 -2.57936,3.02447 -5.12061,7.45515 -6.6851,11.65549 -0.12689,0.34066 -0.24871,0.61797 -0.27072,0.61625 -0.022,-0.002 -0.36414,-0.12198 -0.7603,-0.26725 z"
             id="path4227"
             transform="matrix(7.5000002,0,0,-7.5000002,0,4000.0001)" /><path
             style="fill:#58448f;fill-opacity:1;stroke:#58448f;stroke-width:1.1;stroke-linecap:round;stroke-miterlimit:4;stroke-dasharray:none;stroke-opacity:1;paint-order:stroke fill markers"
             d="m 291.10656,194.20037 c -2.91238,-1.01694 -6.23027,-1.52605 -10.07478,-1.54589 -1.92975,-0.01 -4.13186,0.0618 -4.89356,0.15952 l -1.38491,0.17764 -0.15165,-0.74355 c -0.63961,-3.13594 -0.26807,-7.56203 0.71093,-8.46934 1.75051,-1.62231 7.65384,-3.88532 11.74632,-4.50287 5.38601,-0.81275 10.01694,0.51453 14.16316,4.05934 2.20605,1.88605 2.42081,2.15337 1.94424,2.42006 -2.14911,1.20271 -7.06801,5.56877 -8.7932,7.80493 -0.52048,0.67464 -1.1122,1.21904 -1.31493,1.20977 -0.20274,-0.009 -1.08097,-0.26559 -1.95162,-0.56961 z"
             id="path4266"
             transform="matrix(7.5000002,0,0,-7.5000002,0,4000.0001)" /><path
             style="fill:#58448f;fill-opacity:1;stroke:#58448f;stroke-width:1.1;stroke-linecap:round;stroke-miterlimit:4;stroke-dasharray:none;stroke-opacity:1;paint-order:stroke fill markers"
             d="m 298.00365,244.91919 c -2.88052,-3.89922 -6.30963,-9.29555 -8.35513,-13.14833 l -0.97557,-1.83751 5.94847,-7.44344 c 3.27166,-4.09389 5.96368,-7.46608 5.98227,-7.49374 0.085,-0.12656 5.20996,1.33635 7.13913,2.03785 2.92804,1.06472 6.79506,2.81498 8.74149,3.95652 l 1.61101,0.94482 0.31222,2.21467 c 0.45792,3.24815 0.35376,8.85818 -0.22394,12.06154 -0.81216,4.50339 -0.62059,4.18522 -3.27093,5.43254 -4.59533,2.16267 -8.36182,3.24361 -15.37299,4.41186 -0.53695,0.0895 -0.74254,-0.0627 -1.53603,-1.13678 z"
             id="path4383"
             transform="matrix(7.5000002,0,0,-7.5000002,0,4000.0001)" /><path
             style="fill:#58448f;fill-opacity:1;stroke:#58448f;stroke-width:1.1;stroke-linecap:round;stroke-miterlimit:4;stroke-dasharray:none;stroke-opacity:1;paint-order:stroke fill markers"
             d="m 284.79423,272.51048 c -2.01297,-0.36438 -9.00084,-2.57393 -10.41642,-3.29366 -1.35778,-0.69033 -3.36831,-2.09034 -4.20852,-2.93055 -0.67244,-0.67244 -0.72056,-0.81569 -0.59117,-1.75973 0.0775,-0.56524 0.30295,-1.60536 0.50105,-2.3114 l 0.36019,-1.28369 0.93869,0.41472 c 1.76987,0.78194 4.87716,1.55488 7.32137,1.8212 2.4698,0.2691 7.38497,0.15156 9.29469,-0.22228 l 0.96366,-0.18865 0.98857,1.38468 c 1.2434,1.74164 4.11116,4.48927 5.99721,5.74601 l 1.44306,0.96157 -1.66943,0.76509 c -0.91818,0.4208 -2.20923,0.87844 -2.86898,1.01698 -1.61757,0.33966 -5.86333,0.27625 -8.05397,-0.12029 z"
             id="path4422"
             transform="matrix(7.5000002,0,0,-7.5000002,0,4000.0001)" /><g
             aria-label="FUTAPP"
             transform="scale(1,-1)"
             id="text7955"
             style="font-size:164.625px;line-height:1.25;fill:#ffffff;stroke-width:4.11564"><path
               d="m 1948.8748,-1798.3228 v -96.3948 h 66.0484 v 16.2641 h -46.6107 v 22.8095 h 40.2637 v 16.2642 h -40.2637 v 41.057 z"
               style="font-family:Ramabhadra;-inkscape-font-specification:Ramabhadra"
               id="path28447" /><path
               d="m 2027.2204,-1895.1143 h 19.4376 v 52.1643 q 0,11.7022 0.7934,16.8592 0.7934,5.1569 5.5536,8.7271 4.7603,3.5702 13.289,3.5702 10.5122,0 14.2807,-4.9586 3.9669,-4.9586 3.9669,-23.0079 v -53.3543 h 19.4377 v 50.7759 q 0,17.6525 -2.1818,26.578 -1.9834,8.7271 -10.5122,14.6774 -8.5288,5.9503 -24.3962,5.9503 -15.6692,0 -24.5946,-4.9586 -8.9255,-5.1569 -12.099,-13.289 -2.9751,-8.1321 -2.9751,-28.3631 z"
               style="font-family:Ramabhadra;-inkscape-font-specification:Ramabhadra"
               id="path28449" /><path
               d="m 2142.8544,-1798.3228 v -80.1307 h -28.5615 v -16.2641 h 76.5606 v 16.2641 h -28.5615 v 80.1307 z"
               style="font-family:Ramabhadra;-inkscape-font-specification:Ramabhadra"
               id="path28451" /><path
               d="m 2289.8267,-1798.3228 h -21.2227 l -8.3304,-21.8177 h -38.677 l -7.9337,21.8177 h -20.6277 l 37.4869,-96.3948 h 20.6277 z m -35.9001,-38.0819 -13.289,-35.9001 -13.0907,35.9001 z"
               style="font-family:Ramabhadra;-inkscape-font-specification:Ramabhadra"
               id="path28453" /><path
               d="m 2297.3635,-1798.3228 v -96.3948 h 31.14 q 16.0658,0 23.4045,1.3884 7.537,1.3884 13.289,8.9254 5.9503,7.3387 5.9503,19.2393 0,10.7106 -4.5619,17.8509 -4.5619,6.9421 -12.099,9.9172 -7.3387,2.7768 -24.9912,2.7768 h -12.694 v 36.2968 z m 19.4377,-80.1307 v 27.3714 h 10.7105 q 12.8924,0 18.2476,-2.7768 5.3553,-2.9751 5.3553,-10.9089 0,-7.7354 -4.7602,-10.7105 -4.7603,-2.9752 -20.0327,-2.9752 z"
               style="font-family:Ramabhadra;-inkscape-font-specification:Ramabhadra"
               id="path28455" /><path
               d="m 2383.4443,-1798.3228 v -96.3948 h 31.1399 q 16.0658,0 23.4046,1.3884 7.537,1.3884 13.289,8.9254 5.9503,7.3387 5.9503,19.2393 0,10.7106 -4.5619,17.8509 -4.5619,6.9421 -12.099,9.9172 -7.3387,2.7768 -24.9912,2.7768 h -12.694 v 36.2968 z m 19.4377,-80.1307 v 27.3714 h 10.7105 q 12.8923,0 18.2476,-2.7768 5.3553,-2.9751 5.3553,-10.9089 0,-7.7354 -4.7603,-10.7105 -4.7602,-2.9752 -20.0326,-2.9752 z"
               style="font-family:Ramabhadra;-inkscape-font-specification:Ramabhadra"
               id="path28457" /></g><g
             aria-label="GERENCIADOR DE FUTEBOL"
             transform="scale(1,-1)"
             id="text7955-3"
             style="font-size:38.3666px;line-height:1.25;fill:#ffffff;stroke-width:0.959173"><path
               d="m 1973.6152,-1766.938 v 14.7996 h -2.2855 l -0.8992,-3.7092 q -4.0465,4.4586 -9.7041,4.4586 -5.9198,0 -9.6291,-4.3837 -3.3721,-3.9715 -3.3721,-10.1162 0,-6.6692 3.9716,-10.9405 0.562,-0.5994 1.1614,-1.0865 3.3346,-2.6602 8.5051,-2.6602 7.0064,0 10.1162,4.4961 1.2739,1.8359 1.761,4.4211 h -3.7093 q -0.8242,-3.7092 -4.4961,-5.133 -1.686,-0.6369 -3.7092,-0.6369 -5.1705,0.037 -7.9056,3.9715 -2.0982,2.9599 -2.0982,7.3811 0,4.6085 2.3979,8.018 0.2248,0.3372 0.6369,0.7119 3.0724,2.8475 7.0439,2.8475 0.075,0 0.1124,0 4.3462,0 7.0064,-3.1098 1.9109,-2.248 1.9109,-5.4702 v -0.7494 h -8.655 v -3.1098 z"
               style="font-family:Gargi;-inkscape-font-specification:Gargi"
               id="path28577" /><path
               d="m 1980.9588,-1764.2029 v 9.7416 h 16.7854 v 3.1847 h -20.3823 v -28.4003 h 19.6704 v 3.1847 h -16.0735 v 9.0671 h 15.474 v 3.2222 z"
               style="font-family:Gargi;-inkscape-font-specification:Gargi"
               id="path28579" /><path
               d="m 2005.0878,-1766.7132 h 8.7673 q 4.7209,0 5.4328,-3.3346 0.1499,-0.6744 0.1499,-1.5361 0,-2.5478 -1.4612,-3.8217 -1.2739,-1.0866 -4.1215,-1.0866 h -8.7673 z m 0,3.1848 v 12.2518 h -3.5969 v -28.4003 h 13.0761 q 6.6318,0 8.2429,4.6834 0.4121,1.2739 0.4121,2.9225 0,3.8217 -2.8101,5.8074 -0.7493,0.4871 -1.686,0.9742 2.4354,1.0491 3.1847,2.5852 0.6744,1.4613 0.6744,4.7959 0,3.7467 0.7494,4.7958 0.3747,0.5245 0.9741,0.9367 v 0.8992 h -4.3836 q -0.7869,-1.8734 -0.7869,-4.646 v -2.5103 q 0,-4.2713 -3.1097,-4.9082 -0.7119,-0.1873 -1.5737,-0.1873 z"
               style="font-family:Gargi;-inkscape-font-specification:Gargi"
               id="path28581" /><path
               d="m 2031.6522,-1764.2029 v 9.7416 h 16.7853 v 3.1847 h -20.3822 v -28.4003 h 19.6704 v 3.1847 h -16.0735 v 9.0671 h 15.474 v 3.2222 z"
               style="font-family:Gargi;-inkscape-font-specification:Gargi"
               id="path28583" /><path
               d="m 2074.4024,-1779.6769 v 28.4003 h -4.0839 l -14.6872,-23.0425 v 23.0425 h -3.447 v -28.4003 h 3.9341 l 14.837,23.2298 v -23.2298 z"
               style="font-family:Gargi;-inkscape-font-specification:Gargi"
               id="path28585" /><path
               d="m 2101.304,-1771.4341 h -3.6718 q -0.5995,-2.8475 -2.0607,-4.2338 -2.1356,-1.7235 -5.4702,-1.7235 -0.075,0 -0.1499,0 -4.9457,0 -7.3811,4.3837 -1.5361,2.7726 -1.5361,7.1563 0,6.5193 3.6718,9.5167 2.2855,1.8734 5.4327,1.8734 0.037,0 0.1124,0 4.2713,0 6.2571,-2.96 0.2248,-0.3372 0.3747,-0.6369 0.9366,-2.2106 1.2739,-4.3462 h 3.7467 q -1.2739,11.0529 -11.6898,11.0529 -5.5452,0 -8.6925,-3.2222 -4.1214,-4.1964 -4.1214,-11.2403 0,-7.0064 3.9716,-11.2402 3.1847,-3.4844 8.9921,-3.4844 8.6925,0 10.7906,8.3552 z"
               style="font-family:Gargi;-inkscape-font-specification:Gargi"
               id="path28587" /><path
               d="m 2109.322,-1779.6769 v 28.4003 h -3.6718 v -28.4003 z"
               style="font-family:Gargi;-inkscape-font-specification:Gargi"
               id="path28589" /><path
               d="m 2130.6035,-1762.854 -4.3837,-12.9263 -4.6459,12.9263 z m 1.0116,3.0348 h -10.9404 l -2.9974,8.5426 h -3.8592 l 10.1162,-28.4003 h 4.6834 l 9.9664,28.4003 h -4.0465 z"
               style="font-family:Gargi;-inkscape-font-specification:Gargi"
               id="path28591" /><path
               d="m 2145.9277,-1754.4613 h 6.7066 q 6.7816,0 8.2429,-7.0814 0.3372,-1.7235 0.3372,-3.934 0,-9.5542 -6.5568,-10.8281 -0.9742,-0.1874 -2.0233,-0.1874 h -6.7066 z m -3.5969,3.1847 v -28.4003 h 10.9405 q 6.332,0 9.4043,5.133 2.1731,3.5969 2.1731,9.0297 0,8.1304 -4.5336,11.8771 -2.8475,2.3605 -7.0438,2.3605 z"
               style="font-family:Gargi;-inkscape-font-specification:Gargi"
               id="path28593" /><path
               d="m 2181.5217,-1777.4288 q -5.133,0 -7.9056,3.8966 -2.1731,3.0348 -2.1731,7.5684 0,5.9948 3.7092,9.1795 2.6602,2.2855 6.2946,2.2855 0.037,0 0.1124,0 4.9831,0 7.8306,-3.8217 2.2481,-3.0348 2.2481,-7.4935 0,-6.3319 -3.8217,-9.4792 -2.5852,-2.1356 -6.2945,-2.1356 z m 0,-3.1473 q 6.7816,0 10.5283,4.6834 3.2222,4.009 3.2222,10.1537 0,5.6576 -3.2222,9.6666 -0.7868,1.0116 -1.686,1.7609 -3.5594,2.9225 -8.8048,2.9225 -6.4819,0 -10.341,-4.4961 -3.3721,-3.9341 -3.3721,-10.0787 0,-7.0814 4.3087,-11.1278 3.7093,-3.4845 9.3669,-3.4845 z"
               style="font-family:Gargi;-inkscape-font-specification:Gargi"
               id="path28595" /><path
               d="m 2201.8665,-1766.7132 h 8.7673 q 4.7209,0 5.4328,-3.3346 0.1499,-0.6744 0.1499,-1.5361 0,-2.5478 -1.4612,-3.8217 -1.2739,-1.0866 -4.1215,-1.0866 h -8.7673 z m 0,3.1848 v 12.2518 h -3.5969 v -28.4003 h 13.0761 q 6.6318,0 8.2429,4.6834 0.4121,1.2739 0.4121,2.9225 0,3.8217 -2.8101,5.8074 -0.7493,0.4871 -1.686,0.9742 2.4354,1.0491 3.1847,2.5852 0.6744,1.4613 0.6744,4.7959 0,3.7467 0.7494,4.7958 0.3747,0.5245 0.9741,0.9367 v 0.8992 h -4.3836 q -0.7869,-1.8734 -0.7869,-4.646 v -2.5103 q 0,-4.2713 -3.1097,-4.9082 -0.7119,-0.1873 -1.5737,-0.1873 z"
               style="font-family:Gargi;-inkscape-font-specification:Gargi"
               id="path28597" /><path
               d="m 2237.7977,-1754.4613 h 6.7067 q 6.7815,0 8.2428,-7.0814 0.3372,-1.7235 0.3372,-3.934 0,-9.5542 -6.5568,-10.8281 -0.9742,-0.1874 -2.0232,-0.1874 h -6.7067 z m -3.5969,3.1847 v -28.4003 h 10.9405 q 6.332,0 9.4043,5.133 2.1731,3.5969 2.1731,9.0297 0,8.1304 -4.5335,11.8771 -2.8476,2.3605 -7.0439,2.3605 z"
               style="font-family:Gargi;-inkscape-font-specification:Gargi"
               id="path28599" /><path
               d="m 2264.0623,-1764.2029 v 9.7416 h 16.7854 v 3.1847 h -20.3822 v -28.4003 h 19.6703 v 3.1847 h -16.0735 v 9.0671 h 15.4741 v 3.2222 z"
               style="font-family:Gargi;-inkscape-font-specification:Gargi"
               id="path28601" /><path
               d="m 2297.5582,-1764.2029 v 12.9263 h -3.5969 v -28.4003 h 19.0334 v 3.1847 h -15.4365 v 9.0671 h 13.5632 v 3.2222 z"
               style="font-family:Gargi;-inkscape-font-specification:Gargi"
               id="path28603" /><path
               d="m 2334.9506,-1780.0516 h 3.6344 v 19.5205 q 0,4.9832 -4.0465,7.4561 -2.8101,1.7235 -6.894,1.7235 -6.4444,0 -9.2919,-3.8592 -1.6111,-2.1731 -1.6111,-5.3204 v -19.5205 h 3.6343 v 19.5205 q 0,2.9974 2.0607,4.6085 2.0607,1.4613 5.208,1.4613 4.8333,0 6.5568,-3.0724 0.7493,-1.3488 0.7493,-2.9974 z"
               style="font-family:Gargi;-inkscape-font-specification:Gargi"
               id="path28605" /><path
               d="m 2355.2954,-1776.4922 v 25.2156 h -3.6343 v -25.2156 h -9.3294 v -3.1847 h 22.2931 v 3.1847 z"
               style="font-family:Gargi;-inkscape-font-specification:Gargi"
               id="path28607" /><path
               d="m 2371.9684,-1764.2029 v 9.7416 h 16.7854 v 3.1847 h -20.3823 v -28.4003 h 19.6704 v 3.1847 h -16.0735 v 9.0671 h 15.474 v 3.2222 z"
               style="font-family:Gargi;-inkscape-font-specification:Gargi"
               id="path28609" /><path
               d="m 2396.1348,-1754.4613 h 8.8423 q 2.5478,0 3.7842,-1.3863 1.3114,-1.3863 1.3114,-3.4845 0,-2.1356 -1.3114,-3.5594 -1.2364,-1.3488 -3.7842,-1.3488 h -8.8423 z m 0,-13.0012 h 7.0064 q 2.8101,0 4.1215,-1.0116 1.5736,-1.199 1.5736,-3.4845 0,-2.323 -1.5736,-3.5219 -1.3114,-1.0117 -4.1215,-1.0117 h -7.0064 z m -3.6343,16.1859 v -28.4003 h 11.54 q 4.009,0 6.1446,1.9858 2.2855,2.0232 2.2855,5.2079 0,4.3837 -3.9341,6.2196 4.084,1.5737 4.9083,4.6835 0.2622,0.9741 0.2622,2.2105 0,3.4096 -2.1731,5.7325 -2.248,2.3605 -6.2195,2.3605 z"
               style="font-family:Gargi;-inkscape-font-specification:Gargi"
               id="path28611" /><path
               d="m 2429.6307,-1777.4288 q -5.133,0 -7.9056,3.8966 -2.1731,3.0348 -2.1731,7.5684 0,5.9948 3.7092,9.1795 2.6602,2.2855 6.2946,2.2855 0.037,0 0.1124,0 4.9831,0 7.8307,-3.8217 2.248,-3.0348 2.248,-7.4935 0,-6.3319 -3.8217,-9.4792 -2.5852,-2.1356 -6.2945,-2.1356 z m 0,-3.1473 q 6.7816,0 10.5283,4.6834 3.2222,4.009 3.2222,10.1537 0,5.6576 -3.2222,9.6666 -0.7868,1.0116 -1.686,1.7609 -3.5594,2.9225 -8.8048,2.9225 -6.4819,0 -10.341,-4.4961 -3.3721,-3.9341 -3.3721,-10.0787 0,-7.0814 4.3088,-11.1278 3.7092,-3.4845 9.3668,-3.4845 z"
               style="font-family:Gargi;-inkscape-font-specification:Gargi"
               id="path28613" /><path
               d="m 2450.013,-1779.6769 v 25.2156 h 14.0128 v 3.1847 h -17.6472 v -28.4003 z"
               style="font-family:Gargi;-inkscape-font-specification:Gargi"
               id="path28615" /></g><path
             d="m 2221.5001,2860.6432 0.058,-0.13 c -6.835,16.26 -30.55,17.17 -37.91,0.26 l -22.132,-50.95 -55.215,-5.3 v -0.01 c -17.817,-1.68 -25.231,-23.98 -11.715,-35.93 l 41.601,-36.79 -11.769,-53.02 c -4.86,-19.2 15.109,-32.4 30.344,-23.41 l 47.781,28.17 47.793,-28.17 0.023,0.03 c 15.395,-9.09 34.489,4.58 30.594,22.18 l -12.043,54.22 41.148,36.38 c 13.973,12 6.95,34.62 -11.253,36.35 l -55.219,5.3 z m -343.793,-165.76 v 3.88 c 0.332,2.79 1.391,5.71 3.328,8.83 2.887,4.64 7.313,7.73 12.195,9.03 v 0.01 l 39.629,10.69 c 6.512,26.34 8.688,61.37 34.809,54.95 5.558,-1.37 10.039,-4.88 12.765,-9.43 l 22,-33.74 c 27.036,1.95 61.196,10.74 63.09,-16.19 0.907,-12.96 -18.312,-31.45 -30.332,-46.35 10.203,-25.11 29.106,-54.88 4.098,-65 -5.035,-2.03 -10.395,-1.94 -15.094,-0.15 l -0.012,-0.01 -38.417,14.68 c -20.727,-17.48 -43.067,-44.54 -60.434,-24.02 -8.434,9.97 -3.738,36.04 -2.758,55.39 -18.394,11.44 -42.949,22 -44.867,37.43 z m 524.971,44.22 c 10.53,16.17 22.1,40.05 34.76,43.17 26.12,6.42 28.29,-28.61 34.79,-54.95 l 39.65,-10.69 -0.01,-0.02 c 9.25,-2.46 14.6,-10.24 15.23,-18.42 v -3.3 c -0.48,-6.06 -3.59,-11.97 -9.66,-15.74 l -34.9,-21.71 c 0.97,-19.28 5.67,-45.41 -2.77,-55.38 -17.36,-20.52 -39.71,6.54 -60.44,24.02 l -38.41,-14.68 -0.01,0.01 c -16.76,-6.39 -33.26,10.34 -26.48,27.04 l 15.49,38.11 c -12.02,14.89 -31.246,33.4 -30.332,46.35 1.882,26.93 63.092,16.19 63.092,16.19 v 0"
             style="fill:#ffffff;fill-opacity:1;fill-rule:nonzero;stroke:none"
             id="path98-9"
             sodipodi:nodetypes="cccccccccccccccccccccccccccccccccccccccccccccccccccccsc" /><path
             d="m 2441.7321,2764.5423 -29.08,-44.61 -53.11,3.83 33.44,-41.44 -20.05,-49.32 49.75,19.01 40.7,-34.33 -2.7,53.19 45.22,28.11 -51.41,13.87 -12.76,51.69"
             style="fill:#58448f;fill-opacity:1;fill-rule:evenodd;stroke:none;stroke-width:0.9975;stroke-miterlimit:4;stroke-dasharray:none"
             id="path100-3" /><path
             d="m 1962.1021,2764.5423 29.082,-44.61 53.106,3.83 -33.442,-41.44 20.055,-49.32 -49.75,19.01 -40.703,-34.33 2.699,53.19 -45.223,28.11 51.403,13.86 12.773,51.7"
             style="fill:#58448f;fill-opacity:1;fill-rule:evenodd;stroke:none;stroke-width:0.9975;stroke-miterlimit:4;stroke-dasharray:none"
             id="path102-7" /><path
             d="m 2201.9071,2854.8223 26.969,-62.05 67.351,-6.46 -50.687,-44.83 14.66,-66.05 -58.293,34.36 -58.281,-34.36 14.66,66.05 -50.684,44.83 67.348,6.46 26.957,62.05"
             style="fill:#58448f;fill-opacity:1;fill-rule:evenodd;stroke:none;stroke-width:0.9975;stroke-miterlimit:4;stroke-dasharray:none"
             id="path104-5" /></g></g></g></g></svg>
