<?xml version="1.0" encoding="UTF-8" standalone="no"?>
<!-- Created with Inkscape (http://www.inkscape.org/) -->

<svg
   width="179.7347mm"
   height="52.591835mm"
   viewBox="0 0 179.7347 52.591835"
   version="1.1"
   id="svg429"
   inkscape:version="1.2.2 (b0a8486541, 2022-12-01)"
   sodipodi:docname="logo_vertical_text.svg"
   xmlns:inkscape="http://www.inkscape.org/namespaces/inkscape"
   xmlns:sodipodi="http://sodipodi.sourceforge.net/DTD/sodipodi-0.dtd"
   xmlns="http://www.w3.org/2000/svg"
   xmlns:svg="http://www.w3.org/2000/svg">
  <sodipodi:namedview
     id="namedview431"
     pagecolor="#ffffff"
     bordercolor="#000000"
     borderopacity="0.25"
     inkscape:showpageshadow="2"
     inkscape:pageopacity="0.0"
     inkscape:pagecheckerboard="0"
     inkscape:deskcolor="#d1d1d1"
     inkscape:document-units="mm"
     showgrid="false"
     showguides="true"
     inkscape:zoom="0.50244108"
     inkscape:cx="369.19752"
     inkscape:cy="320.43558"
     inkscape:window-width="1920"
     inkscape:window-height="1048"
     inkscape:window-x="0"
     inkscape:window-y="0"
     inkscape:window-maximized="1"
     inkscape:current-layer="layer1" />
  <defs
     id="defs426" />
  <g
     inkscape:label="Layer 1"
     inkscape:groupmode="layer"
     id="layer1"
     transform="translate(-7.6859474,-63.583037)">
    <g
       aria-label="FUTAPP"
       transform="matrix(0.27059072,0,0,0.27059072,-479.32187,589.42018)"
       id="text7955"
       style="font-size:164.625px;line-height:1.25;fill:#58448f;fill-opacity:1;stroke-width:4.11564">
      <path
         d="m 1948.8748,-1798.3228 v -96.3948 h 66.0484 v 16.2641 h -46.6107 v 22.8095 h 40.2637 v 16.2642 h -40.2637 v 41.057 z"
         style="font-family:Ramabhadra;-inkscape-font-specification:Ramabhadra;fill:#58448f;fill-opacity:1"
         id="path28447" />
      <path
         d="m 2027.2204,-1895.1143 h 19.4376 v 52.1643 q 0,11.7022 0.7934,16.8592 0.7934,5.1569 5.5536,8.7271 4.7603,3.5702 13.289,3.5702 10.5122,0 14.2807,-4.9586 3.9669,-4.9586 3.9669,-23.0079 v -53.3543 h 19.4377 v 50.7759 q 0,17.6525 -2.1818,26.578 -1.9834,8.7271 -10.5122,14.6774 -8.5288,5.9503 -24.3962,5.9503 -15.6692,0 -24.5946,-4.9586 -8.9255,-5.1569 -12.099,-13.289 -2.9751,-8.1321 -2.9751,-28.3631 z"
         style="font-family:Ramabhadra;-inkscape-font-specification:Ramabhadra;fill:#58448f;fill-opacity:1"
         id="path28449" />
      <path
         d="m 2142.8544,-1798.3228 v -80.1307 h -28.5615 v -16.2641 h 76.5606 v 16.2641 h -28.5615 v 80.1307 z"
         style="font-family:Ramabhadra;-inkscape-font-specification:Ramabhadra;fill:#58448f;fill-opacity:1"
         id="path28451" />
      <path
         d="m 2289.8267,-1798.3228 h -21.2227 l -8.3304,-21.8177 h -38.677 l -7.9337,21.8177 h -20.6277 l 37.4869,-96.3948 h 20.6277 z m -35.9001,-38.0819 -13.289,-35.9001 -13.0907,35.9001 z"
         style="font-family:Ramabhadra;-inkscape-font-specification:Ramabhadra;fill:#58448f;fill-opacity:1"
         id="path28453" />
      <path
         d="m 2297.3635,-1798.3228 v -96.3948 h 31.14 q 16.0658,0 23.4045,1.3884 7.537,1.3884 13.289,8.9254 5.9503,7.3387 5.9503,19.2393 0,10.7106 -4.5619,17.8509 -4.5619,6.9421 -12.099,9.9172 -7.3387,2.7768 -24.9912,2.7768 h -12.694 v 36.2968 z m 19.4377,-80.1307 v 27.3714 h 10.7105 q 12.8924,0 18.2476,-2.7768 5.3553,-2.9751 5.3553,-10.9089 0,-7.7354 -4.7602,-10.7105 -4.7603,-2.9752 -20.0327,-2.9752 z"
         style="font-family:Ramabhadra;-inkscape-font-specification:Ramabhadra;fill:#58448f;fill-opacity:1"
         id="path28455" />
      <path
         d="m 2383.4443,-1798.3228 v -96.3948 h 31.1399 q 16.0658,0 23.4046,1.3884 7.537,1.3884 13.289,8.9254 5.9503,7.3387 5.9503,19.2393 0,10.7106 -4.5619,17.8509 -4.5619,6.9421 -12.099,9.9172 -7.3387,2.7768 -24.9912,2.7768 h -12.694 v 36.2968 z m 19.4377,-80.1307 v 27.3714 h 10.7105 q 12.8923,0 18.2476,-2.7768 5.3553,-2.9751 5.3553,-10.9089 0,-7.7354 -4.7603,-10.7105 -4.7602,-2.9752 -20.0326,-2.9752 z"
         style="font-family:Ramabhadra;-inkscape-font-specification:Ramabhadra;fill:#58448f;fill-opacity:1"
         id="path28457" />
    </g>
    <g
       aria-label="GERENCIADOR DE FUTEBOL"
       transform="matrix(0.27059072,0,0,0.27059072,-479.32187,589.42018)"
       id="text7955-3"
       style="font-size:38.3666px;line-height:1.25;fill:#58448f;fill-opacity:1;stroke-width:0.959173">
      <path
         d="m 1973.6152,-1766.938 v 14.7996 h -2.2855 l -0.8992,-3.7092 q -4.0465,4.4586 -9.7041,4.4586 -5.9198,0 -9.6291,-4.3837 -3.3721,-3.9715 -3.3721,-10.1162 0,-6.6692 3.9716,-10.9405 0.562,-0.5994 1.1614,-1.0865 3.3346,-2.6602 8.5051,-2.6602 7.0064,0 10.1162,4.4961 1.2739,1.8359 1.761,4.4211 h -3.7093 q -0.8242,-3.7092 -4.4961,-5.133 -1.686,-0.6369 -3.7092,-0.6369 -5.1705,0.037 -7.9056,3.9715 -2.0982,2.9599 -2.0982,7.3811 0,4.6085 2.3979,8.018 0.2248,0.3372 0.6369,0.7119 3.0724,2.8475 7.0439,2.8475 0.075,0 0.1124,0 4.3462,0 7.0064,-3.1098 1.9109,-2.248 1.9109,-5.4702 v -0.7494 h -8.655 v -3.1098 z"
         style="font-family:Gargi;-inkscape-font-specification:Gargi;fill:#58448f;fill-opacity:1"
         id="path28577" />
      <path
         d="m 1980.9588,-1764.2029 v 9.7416 h 16.7854 v 3.1847 h -20.3823 v -28.4003 h 19.6704 v 3.1847 h -16.0735 v 9.0671 h 15.474 v 3.2222 z"
         style="font-family:Gargi;-inkscape-font-specification:Gargi;fill:#58448f;fill-opacity:1"
         id="path28579" />
      <path
         d="m 2005.0878,-1766.7132 h 8.7673 q 4.7209,0 5.4328,-3.3346 0.1499,-0.6744 0.1499,-1.5361 0,-2.5478 -1.4612,-3.8217 -1.2739,-1.0866 -4.1215,-1.0866 h -8.7673 z m 0,3.1848 v 12.2518 h -3.5969 v -28.4003 h 13.0761 q 6.6318,0 8.2429,4.6834 0.4121,1.2739 0.4121,2.9225 0,3.8217 -2.8101,5.8074 -0.7493,0.4871 -1.686,0.9742 2.4354,1.0491 3.1847,2.5852 0.6744,1.4613 0.6744,4.7959 0,3.7467 0.7494,4.7958 0.3747,0.5245 0.9741,0.9367 v 0.8992 h -4.3836 q -0.7869,-1.8734 -0.7869,-4.646 v -2.5103 q 0,-4.2713 -3.1097,-4.9082 -0.7119,-0.1873 -1.5737,-0.1873 z"
         style="font-family:Gargi;-inkscape-font-specification:Gargi;fill:#58448f;fill-opacity:1"
         id="path28581" />
      <path
         d="m 2031.6522,-1764.2029 v 9.7416 h 16.7853 v 3.1847 h -20.3822 v -28.4003 h 19.6704 v 3.1847 h -16.0735 v 9.0671 h 15.474 v 3.2222 z"
         style="font-family:Gargi;-inkscape-font-specification:Gargi;fill:#58448f;fill-opacity:1"
         id="path28583" />
      <path
         d="m 2074.4024,-1779.6769 v 28.4003 h -4.0839 l -14.6872,-23.0425 v 23.0425 h -3.447 v -28.4003 h 3.9341 l 14.837,23.2298 v -23.2298 z"
         style="font-family:Gargi;-inkscape-font-specification:Gargi;fill:#58448f;fill-opacity:1"
         id="path28585" />
      <path
         d="m 2101.304,-1771.4341 h -3.6718 q -0.5995,-2.8475 -2.0607,-4.2338 -2.1356,-1.7235 -5.4702,-1.7235 -0.075,0 -0.1499,0 -4.9457,0 -7.3811,4.3837 -1.5361,2.7726 -1.5361,7.1563 0,6.5193 3.6718,9.5167 2.2855,1.8734 5.4327,1.8734 0.037,0 0.1124,0 4.2713,0 6.2571,-2.96 0.2248,-0.3372 0.3747,-0.6369 0.9366,-2.2106 1.2739,-4.3462 h 3.7467 q -1.2739,11.0529 -11.6898,11.0529 -5.5452,0 -8.6925,-3.2222 -4.1214,-4.1964 -4.1214,-11.2403 0,-7.0064 3.9716,-11.2402 3.1847,-3.4844 8.9921,-3.4844 8.6925,0 10.7906,8.3552 z"
         style="font-family:Gargi;-inkscape-font-specification:Gargi;fill:#58448f;fill-opacity:1"
         id="path28587" />
      <path
         d="m 2109.322,-1779.6769 v 28.4003 h -3.6718 v -28.4003 z"
         style="font-family:Gargi;-inkscape-font-specification:Gargi;fill:#58448f;fill-opacity:1"
         id="path28589" />
      <path
         d="m 2130.6035,-1762.854 -4.3837,-12.9263 -4.6459,12.9263 z m 1.0116,3.0348 h -10.9404 l -2.9974,8.5426 h -3.8592 l 10.1162,-28.4003 h 4.6834 l 9.9664,28.4003 h -4.0465 z"
         style="font-family:Gargi;-inkscape-font-specification:Gargi;fill:#58448f;fill-opacity:1"
         id="path28591" />
      <path
         d="m 2145.9277,-1754.4613 h 6.7066 q 6.7816,0 8.2429,-7.0814 0.3372,-1.7235 0.3372,-3.934 0,-9.5542 -6.5568,-10.8281 -0.9742,-0.1874 -2.0233,-0.1874 h -6.7066 z m -3.5969,3.1847 v -28.4003 h 10.9405 q 6.332,0 9.4043,5.133 2.1731,3.5969 2.1731,9.0297 0,8.1304 -4.5336,11.8771 -2.8475,2.3605 -7.0438,2.3605 z"
         style="font-family:Gargi;-inkscape-font-specification:Gargi;fill:#58448f;fill-opacity:1"
         id="path28593" />
      <path
         d="m 2181.5217,-1777.4288 q -5.133,0 -7.9056,3.8966 -2.1731,3.0348 -2.1731,7.5684 0,5.9948 3.7092,9.1795 2.6602,2.2855 6.2946,2.2855 0.037,0 0.1124,0 4.9831,0 7.8306,-3.8217 2.2481,-3.0348 2.2481,-7.4935 0,-6.3319 -3.8217,-9.4792 -2.5852,-2.1356 -6.2945,-2.1356 z m 0,-3.1473 q 6.7816,0 10.5283,4.6834 3.2222,4.009 3.2222,10.1537 0,5.6576 -3.2222,9.6666 -0.7868,1.0116 -1.686,1.7609 -3.5594,2.9225 -8.8048,2.9225 -6.4819,0 -10.341,-4.4961 -3.3721,-3.9341 -3.3721,-10.0787 0,-7.0814 4.3087,-11.1278 3.7093,-3.4845 9.3669,-3.4845 z"
         style="font-family:Gargi;-inkscape-font-specification:Gargi;fill:#58448f;fill-opacity:1"
         id="path28595" />
      <path
         d="m 2201.8665,-1766.7132 h 8.7673 q 4.7209,0 5.4328,-3.3346 0.1499,-0.6744 0.1499,-1.5361 0,-2.5478 -1.4612,-3.8217 -1.2739,-1.0866 -4.1215,-1.0866 h -8.7673 z m 0,3.1848 v 12.2518 h -3.5969 v -28.4003 h 13.0761 q 6.6318,0 8.2429,4.6834 0.4121,1.2739 0.4121,2.9225 0,3.8217 -2.8101,5.8074 -0.7493,0.4871 -1.686,0.9742 2.4354,1.0491 3.1847,2.5852 0.6744,1.4613 0.6744,4.7959 0,3.7467 0.7494,4.7958 0.3747,0.5245 0.9741,0.9367 v 0.8992 h -4.3836 q -0.7869,-1.8734 -0.7869,-4.646 v -2.5103 q 0,-4.2713 -3.1097,-4.9082 -0.7119,-0.1873 -1.5737,-0.1873 z"
         style="font-family:Gargi;-inkscape-font-specification:Gargi;fill:#58448f;fill-opacity:1"
         id="path28597" />
      <path
         d="m 2237.7977,-1754.4613 h 6.7067 q 6.7815,0 8.2428,-7.0814 0.3372,-1.7235 0.3372,-3.934 0,-9.5542 -6.5568,-10.8281 -0.9742,-0.1874 -2.0232,-0.1874 h -6.7067 z m -3.5969,3.1847 v -28.4003 h 10.9405 q 6.332,0 9.4043,5.133 2.1731,3.5969 2.1731,9.0297 0,8.1304 -4.5335,11.8771 -2.8476,2.3605 -7.0439,2.3605 z"
         style="font-family:Gargi;-inkscape-font-specification:Gargi;fill:#58448f;fill-opacity:1"
         id="path28599" />
      <path
         d="m 2264.0623,-1764.2029 v 9.7416 h 16.7854 v 3.1847 h -20.3822 v -28.4003 h 19.6703 v 3.1847 h -16.0735 v 9.0671 h 15.4741 v 3.2222 z"
         style="font-family:Gargi;-inkscape-font-specification:Gargi;fill:#58448f;fill-opacity:1"
         id="path28601" />
      <path
         d="m 2297.5582,-1764.2029 v 12.9263 h -3.5969 v -28.4003 h 19.0334 v 3.1847 h -15.4365 v 9.0671 h 13.5632 v 3.2222 z"
         style="font-family:Gargi;-inkscape-font-specification:Gargi;fill:#58448f;fill-opacity:1"
         id="path28603" />
      <path
         d="m 2334.9506,-1780.0516 h 3.6344 v 19.5205 q 0,4.9832 -4.0465,7.4561 -2.8101,1.7235 -6.894,1.7235 -6.4444,0 -9.2919,-3.8592 -1.6111,-2.1731 -1.6111,-5.3204 v -19.5205 h 3.6343 v 19.5205 q 0,2.9974 2.0607,4.6085 2.0607,1.4613 5.208,1.4613 4.8333,0 6.5568,-3.0724 0.7493,-1.3488 0.7493,-2.9974 z"
         style="font-family:Gargi;-inkscape-font-specification:Gargi;fill:#58448f;fill-opacity:1"
         id="path28605" />
      <path
         d="m 2355.2954,-1776.4922 v 25.2156 h -3.6343 v -25.2156 h -9.3294 v -3.1847 h 22.2931 v 3.1847 z"
         style="font-family:Gargi;-inkscape-font-specification:Gargi;fill:#58448f;fill-opacity:1"
         id="path28607" />
      <path
         d="m 2371.9684,-1764.2029 v 9.7416 h 16.7854 v 3.1847 h -20.3823 v -28.4003 h 19.6704 v 3.1847 h -16.0735 v 9.0671 h 15.474 v 3.2222 z"
         style="font-family:Gargi;-inkscape-font-specification:Gargi;fill:#58448f;fill-opacity:1"
         id="path28609" />
      <path
         d="m 2396.1348,-1754.4613 h 8.8423 q 2.5478,0 3.7842,-1.3863 1.3114,-1.3863 1.3114,-3.4845 0,-2.1356 -1.3114,-3.5594 -1.2364,-1.3488 -3.7842,-1.3488 h -8.8423 z m 0,-13.0012 h 7.0064 q 2.8101,0 4.1215,-1.0116 1.5736,-1.199 1.5736,-3.4845 0,-2.323 -1.5736,-3.5219 -1.3114,-1.0117 -4.1215,-1.0117 h -7.0064 z m -3.6343,16.1859 v -28.4003 h 11.54 q 4.009,0 6.1446,1.9858 2.2855,2.0232 2.2855,5.2079 0,4.3837 -3.9341,6.2196 4.084,1.5737 4.9083,4.6835 0.2622,0.9741 0.2622,2.2105 0,3.4096 -2.1731,5.7325 -2.248,2.3605 -6.2195,2.3605 z"
         style="font-family:Gargi;-inkscape-font-specification:Gargi;fill:#58448f;fill-opacity:1"
         id="path28611" />
      <path
         d="m 2429.6307,-1777.4288 q -5.133,0 -7.9056,3.8966 -2.1731,3.0348 -2.1731,7.5684 0,5.9948 3.7092,9.1795 2.6602,2.2855 6.2946,2.2855 0.037,0 0.1124,0 4.9831,0 7.8307,-3.8217 2.248,-3.0348 2.248,-7.4935 0,-6.3319 -3.8217,-9.4792 -2.5852,-2.1356 -6.2945,-2.1356 z m 0,-3.1473 q 6.7816,0 10.5283,4.6834 3.2222,4.009 3.2222,10.1537 0,5.6576 -3.2222,9.6666 -0.7868,1.0116 -1.686,1.7609 -3.5594,2.9225 -8.8048,2.9225 -6.4819,0 -10.341,-4.4961 -3.3721,-3.9341 -3.3721,-10.0787 0,-7.0814 4.3088,-11.1278 3.7092,-3.4845 9.3668,-3.4845 z"
         style="font-family:Gargi;-inkscape-font-specification:Gargi;fill:#58448f;fill-opacity:1"
         id="path28613" />
      <path
         d="m 2450.013,-1779.6769 v 25.2156 h 14.0128 v 3.1847 h -17.6472 v -28.4003 z"
         style="font-family:Gargi;-inkscape-font-specification:Gargi;fill:#58448f;fill-opacity:1"
         id="path28615" />
    </g>
    <path
       d="m 26.391508,68.542278 c 5.025426,0 9.609064,2.65851 12.143088,6.898798 l 5.530473,3.38e-4 c 0.609912,0 1.08688,0.527034 1.024635,1.135254 h 0.0015 l -2.846929,27.886102 c -0.03079,0.30408 -0.191463,0.56357 -0.420814,0.72993 l 6.71e-4,0.001 -14.826631,10.78495 c -0.3765,0.27258 -0.876134,0.25435 -1.228955,-0.0123 L 10.95835,105.19416 c -0.266223,-0.19292 -0.413712,-0.48955 -0.426228,-0.79495 L 7.6912815,76.572946 c -0.061566,-0.611602 0.4167558,-1.146754 1.0757174,-1.131532 l 5.4804071,-3.38e-4 c 2.533685,-4.239612 7.119691,-6.898798 12.144102,-6.898798"
       style="fill:#ffffff;fill-opacity:1;fill-rule:evenodd;stroke:none;stroke-width:0.0338276"
       id="path106" />
    <path
       d="M 26.390832,115.14174 11.564202,104.35656 8.7172723,76.470787 H 44.064391 l -2.846929,27.885773 -14.82663,10.78518"
       style="fill:#000000;fill-opacity:1;fill-rule:evenodd;stroke:none;stroke-width:0.0338276"
       id="path108" />
    <path
       d="M 26.390832,112.90712 38.22,103.13636 40.652541,76.470787 H 12.129122 l 2.432542,26.665573 11.829168,9.77076"
       style="fill:#ffffff;fill-opacity:1;fill-rule:evenodd;stroke:none;stroke-width:0.0338276"
       id="path110" />
    <path
       d="m 26.390832,111.41093 8.982238,-8.74166 2.109488,-26.198483 H 15.299105 l 2.109488,26.198483 8.982239,8.74166"
       style="fill:#58448f;fill-opacity:1;fill-rule:evenodd;stroke:none;stroke-width:0.0338276"
       id="path112" />
    <path
       d="m 26.390832,108.79443 5.445564,-5.57414 H 20.945267 Z"
       style="fill:#ffffff;fill-opacity:1;fill-rule:evenodd;stroke:none;stroke-width:0.0338276"
       id="path114" />
    <path
       d="m 26.390832,95.249799 c 6.922815,0 12.568977,-5.64613 12.568977,-12.568944 0,-6.922815 -5.646162,-12.568977 -12.568977,-12.568977 -6.922815,0 -12.568977,5.646162 -12.568977,12.568977 0,6.922814 5.646162,12.568944 12.568977,12.568944"
       style="fill:#ffffff;fill-opacity:1;fill-rule:evenodd;stroke:none;stroke-width:0.0338276"
       id="path120" />
    <path
       d="m 38.181098,84.157431 c -0.0159,0.163724 -0.03653,0.326773 -0.06089,0.489484 -0.04499,0.292947 -0.104527,0.584202 -0.178271,0.872076 -0.07138,0.279415 -0.155945,0.555788 -0.254384,0.827085 -0.225291,0.606527 -0.652195,1.172124 -1.132547,1.609854 v 3.35e-4 c -0.414388,0.371092 -0.910977,0.695834 -1.43226,0.817614 l -0.239161,-0.234425 -0.706997,-0.691775 -1.285109,-1.258047 c 0.450583,-1.576363 0.526019,-3.281275 0.212098,-4.888762 0.363309,-0.274681 0.724587,-0.561874 1.073011,-0.865309 0.243221,-0.212101 0.480352,-0.43198 0.706997,-0.660654 0.320347,-0.324068 0.621074,-0.665049 0.889327,-1.026666 0.361956,0.08119 0.700908,0.33151 1.012121,0.59469 0.632915,0.534476 0.964425,0.927214 1.156904,1.459659 0.07848,0.217173 0.134634,0.45735 0.178271,0.740148 0.02064,0.13497 0.0389,0.279753 0.05548,0.436374 l 0.0054,0.05514 c 0.05683,0.568642 0.05615,1.147432 0,1.723178 z m -1.536787,4.951678 c -0.25709,0.382593 -1.015504,1.360547 -1.760726,2.163615 -0.24322,0.261487 -0.484411,0.504369 -0.706997,0.701923 -0.330495,0.293622 -0.617691,0.487453 -0.806111,0.494557 0.27468,-0.274678 0.551728,-0.58623 0.806111,-0.922139 0.273327,-0.361956 0.519931,-0.752663 0.706997,-1.156902 0.179624,-0.389693 0.303772,-0.791566 0.342674,-1.192086 0.915712,-0.21582 1.756328,-0.925522 2.313806,-1.684275 z m -3.890849,3.339123 -0.09066,0.08288 c -0.316288,0.286183 -0.985736,0.588939 -1.573659,0.809832 -0.283475,0.10622 -0.548345,0.19417 -0.745222,0.251339 -0.338275,0.0981 -2.143315,0.463778 -2.395669,0.337939 v 3.4e-4 c -0.210746,-0.107573 -0.417094,-0.22834 -0.615324,-0.359929 -0.521283,-0.346732 -0.992163,-0.773636 -1.365619,-1.269548 -0.08457,-0.112985 -0.164403,-0.22935 -0.239162,-0.349438 l 0.239162,-0.347749 0.941421,-1.370017 -6.71e-4,-3.39e-4 0.424875,-0.83351 0.06292,-0.123472 c 0.135987,-0.299373 0.258443,-0.599084 0.367368,-0.898461 1.144387,-0.13497 2.255623,-0.38834 3.325928,-0.777019 0.51993,-0.188419 1.030726,-0.409312 1.529345,-0.664035 l 1.558098,1.523932 0.621751,0.608219 c -0.01996,0.546656 -0.271635,1.142699 -0.621751,1.702545 -0.410328,0.655918 -0.955291,1.261092 -1.423126,1.676494 z m -1.664317,1.435303 c -1.195129,0.503356 -2.458589,0.812541 -3.756215,0.911687 -0.05074,0.0037 -0.101483,0.0077 -0.153239,0.01111 l 0.153239,-0.09367 0.563567,-0.345044 c 0.254384,-0.08795 1.450865,0.0866 3.192648,-0.559846 0.572701,-0.212775 1.204939,-0.51384 1.88149,-0.942774 l 0.03518,0.0088 c -0.614647,0.39443 -1.255341,0.731692 -1.916671,1.009757 z m -5.121834,0.831482 c -0.508767,0.0687 -1.030727,0.03619 -1.552687,-0.04735 -0.299036,-0.04804 -0.59841,-0.11231 -0.895754,-0.184361 l -1.784405,-0.584202 -0.02537,-0.01185 c -0.257428,-0.124825 -0.7848,-0.438744 -1.109883,-0.708014 -0.132266,-0.109261 -0.231381,-0.210744 -0.26487,-0.289563 -0.111631,-0.260134 0.128883,-1.011444 0.226644,-1.277669 l 0.03823,0.01927 c 0.342335,0.175904 0.716806,0.30986 1.109883,0.407963 0.864295,0.215481 1.816879,0.256072 2.70553,0.177592 0.30614,-0.02706 0.604499,-0.06833 0.889327,-0.121102 0.18639,0.317642 0.410329,0.614648 0.663359,0.887976 0.397813,0.430623 0.866324,0.802389 1.36562,1.105485 0.03789,0.02266 0.07544,0.04533 0.112984,0.06732 -0.03755,0.02538 -0.0751,0.05006 -0.112984,0.0734 -0.436715,0.273328 -0.895755,0.422506 -1.36562,0.48509 z m -5.868072,-3.110783 c -0.130912,0.386648 -0.214128,0.789874 -0.206348,1.199525 -0.02436,0.0015 -0.04736,0.0019 -0.0707,0.0022 -0.168461,0.0019 -0.449907,-0.167108 -0.758414,-0.401533 -0.549022,-0.417434 -1.183289,-1.043919 -1.419744,-1.288832 -0.08389,-0.08727 -0.167108,-0.176579 -0.248633,-0.26656 -0.509781,-0.56323 -0.974572,-1.181937 -1.38321,-1.855442 -0.296667,-0.487456 -0.979985,-1.88758 -1.27327,-2.771494 C 14.65435,85.9667 14.602595,85.754261 14.60158,85.61929 l 0.13734,-0.312905 0.03755,-0.08592 c 0.656255,0.902179 1.570615,1.530021 2.618931,1.875739 0.03721,0.01219 0.07476,0.02438 0.112308,0.03585 0.232734,1.052714 0.835203,2.094944 1.556069,2.99983 0.328466,0.412357 0.681964,0.796302 1.035462,1.139315 l 0.08964,0.0866 c -0.0318,0.08152 -0.0619,0.163049 -0.08964,0.246266 z m -5.649883,-6.680272 c -0.01252,-0.06698 -0.02503,-0.134295 -0.0362,-0.201613 -0.05751,-0.339628 -0.100468,-0.679934 -0.128883,-1.020576 0.0318,0.241865 0.07476,0.47291 0.128883,0.687374 0.03687,0.14715 0.07983,0.286522 0.128207,0.415405 -0.03247,0.03924 -0.0636,0.07916 -0.09201,0.11941 z m -0.0362,-4.15741 0.272312,-1.32807 c 0.01624,0.05108 0.03417,0.101483 0.05345,0.151209 0.02097,0.05446 0.04364,0.107908 0.06732,0.160343 -0.02233,0.03552 -0.04499,0.0734 -0.06732,0.114338 -0.132943,0.247954 -0.24728,0.589274 -0.32576,0.91402 -0.02368,0.09675 -0.04364,0.192139 -0.06089,0.282799 z m 2.554321,-5.755425 c 0.13734,-0.169476 0.280092,-0.335908 0.427919,-0.49828 0.50031,-0.551052 1.057112,-1.061848 1.668377,-1.523256 0.32373,-0.244574 0.663358,-0.47494 1.016857,-0.690083 l 0.01861,-0.01082 c 0,0 0.349439,-0.154254 0.499972,-0.167785 0.204995,-0.01793 0.419462,0.0037 0.61397,0.02537 -0.200936,0.776682 -0.177933,1.593618 -0.01793,2.374697 -0.203642,0.171167 -0.402548,0.347409 -0.596042,0.528387 -0.171168,0.159666 -0.337599,0.323391 -0.499972,0.4905 -0.366691,0.377177 -0.712409,0.773298 -1.035462,1.188024 -0.423522,0.544285 -0.807464,1.120031 -1.14777,1.725883 l -0.520607,0.130576 -0.928228,0.232733 c -0.457688,0.138694 -0.909624,0.373119 -1.314878,0.632236 -0.09641,-0.243556 -0.231043,-0.597731 -0.196201,-0.86463 0.458026,-1.28342 1.133901,-2.495124 2.011389,-3.573548 z m 4.741613,-3.54141 c 0.173873,-0.07273 0.348424,-0.140722 0.523312,-0.205333 -0.180977,0.09438 -0.356881,0.194847 -0.523312,0.302757 -0.08457,0.05514 -0.167109,0.111969 -0.247618,0.170491 -0.09066,-0.01489 -0.182331,-0.02639 -0.275019,-0.03383 0.173198,-0.08254 0.347748,-0.161019 0.522637,-0.234085 z m 1.991429,-0.323392 c 0.237132,-0.07002 0.475616,-0.130574 0.714101,-0.178271 0.520606,-0.103851 1.041889,-0.147488 1.552686,-0.101821 0.467159,0.04195 0.925861,0.15899 1.365619,0.373118 0.09201,0.04431 0.182331,0.09303 0.272312,0.146136 h 6.71e-4 c 0.52196,0.26081 0.998253,0.724925 1.403168,1.159271 -0.601116,0.382928 -1.168066,0.815921 -1.676156,1.309804 -0.349439,0.339291 -0.67114,0.708011 -0.957997,1.107853 -0.133958,-0.05581 -0.270283,-0.108248 -0.407623,-0.155945 -0.503354,-0.176242 -1.023961,-0.298697 -1.552686,-0.37278 -0.891019,-0.124485 -1.806055,-0.110954 -2.70553,0.01861 l -0.07983,0.01184 c -0.159321,-0.777359 -0.181647,-1.573998 0.04432,-2.339517 l 0.03552,-0.02672 c 0.584879,-0.426227 1.290523,-0.742515 1.99143,-0.951231 z m 3.632406,-0.601792 c 0.675875,0.07442 1.713368,0.279077 1.9346,0.333878 h 6.71e-4 c 0.63359,0.181993 1.239442,0.387664 1.820938,0.628517 1.11056,0.460055 2.131476,1.047978 3.087444,1.842926 0.175565,0.146474 0.349439,0.299713 0.521283,0.460732 -0.03958,0.0058 -0.07882,0.01353 -0.117043,0.02266 v 3.39e-4 l -0.40424,0.166431 -0.175903,0.07239 c -0.890681,-0.618368 -1.87574,-1.092631 -2.911541,-1.39099 -0.154592,-0.04431 -0.30986,-0.08491 -0.466482,-0.121441 -1.779331,-0.415065 -0.624457,0.181316 -1.958955,-0.952923 -0.268253,-0.227998 -0.546992,-0.430287 -0.83385,-0.600778 -0.104527,-0.103512 -0.294639,-0.197553 -0.496928,-0.275695 -0.208716,-0.08085 -0.429272,-0.144782 -0.580481,-0.186051 0.05852,-0.04026 0.285167,-0.03247 0.580481,0 z m 5.521677,10.796072 C 32.308628,80.997593 31.710218,80.687058 31.089143,80.419142 30.208949,80.038923 29.28275,79.744284 28.392747,79.558909 L 27.653614,77.356393 27.332928,76.63113 26.71659,75.235742 c 0.167785,-0.234425 0.345718,-0.456334 0.533123,-0.666065 0.02266,-0.02503 0.0504,-0.0548 0.08321,-0.08863 0.432317,-0.442465 1.731634,-1.595986 2.086486,-1.67751 0.371427,0.03755 0.744545,0.10013 1.115972,0.187405 0.151209,0.03518 0.341658,0.08998 0.553757,0.159328 0.934657,0.305124 2.304335,0.890003 2.743756,1.338219 0.101144,0.103174 0.219541,0.275018 0.343688,0.482381 0.248971,0.416418 0.518577,0.975249 0.706996,1.408919 0.0778,0.180978 0.142415,0.340644 0.185376,0.458702 0.142075,0.3924 0.494221,1.670744 0.365676,2.034053 -0.05108,0.145119 -0.265885,0.395444 -0.551052,0.684671 -0.20973,0.211084 -0.456672,0.442464 -0.706996,0.668094 -0.542595,0.488131 -1.101426,0.948525 -1.321982,1.115294 z m -5.521675,6.015223 C 26.851222,86.683337 26.392182,85.990209 25.967308,85.278815 25.677405,84.792712 25.40374,84.298152 25.14868,83.795474 l 0.818628,-1.022607 1.365619,-1.706265 0.877487,-1.096689 c 0.750635,0.145119 1.571968,0.409652 2.321588,0.704965 h 6.7e-4 c 0.184361,0.07307 0.370751,0.150874 0.556464,0.232734 0.548345,0.241868 1.091955,0.519933 1.577042,0.831821 0.313244,1.576706 0.238485,3.246435 -0.214128,4.789647 -0.370074,0.19045 -0.740486,0.360603 -1.113266,0.511473 -0.08322,0.03384 -0.166432,0.06596 -0.249648,0.09742 -0.306478,0.116708 -0.615662,0.221232 -0.928229,0.313244 v 3.4e-4 c -0.781079,0.227996 -1.583807,0.384955 -2.400405,0.486777 -0.144106,-0.192138 -0.286858,-0.386647 -0.427581,-0.58251 z m -8.781979,-6.257766 c 0.157975,0.394091 0.325759,0.776345 0.512826,1.151152 0.172521,0.345043 0.361955,0.683658 0.574731,1.018213 -0.203981,0.21954 -0.395783,0.449228 -0.574731,0.687713 -0.62581,0.834188 -1.10075,1.774935 -1.462028,2.749844 -0.06935,-0.02199 -0.138017,-0.04465 -0.206349,-0.06867 -0.414049,-0.146471 -0.803405,-0.339628 -1.164683,-0.590627 h -6.71e-4 c -0.389017,-0.389358 -0.865648,-0.613635 -1.21847,-1.251621 -0.122117,-0.220893 -0.214467,-0.610251 -0.27265,-1.07741 -0.0893,-0.720189 -0.09573,-1.625075 0,-2.382475 0.08119,-0.637312 0.234425,-1.169757 0.472233,-1.400124 0.319332,-0.309186 0.981338,-0.555788 1.395388,-0.701585 l 0.788859,-0.199242 0.57101,-0.144444 c 0.122794,0.75131 0.31967,1.494164 0.58454,2.209277 z m 1.220499,-4.550824 c 0.05818,-0.06765 0.177595,-0.203981 0.327789,-0.369736 0.14715,-0.163387 0.324407,-0.354851 0.499972,-0.537858 0.328466,-0.342674 0.653549,-0.655241 0.775666,-0.696172 0.0937,-0.03112 0.206687,-0.05717 0.334217,-0.07814 0.702937,-0.116705 1.829734,-0.091 2.361504,-0.03552 0.07916,0.0085 0.199582,0.02469 0.344026,0.04871 0.448216,0.07374 1.128488,0.212437 1.552687,0.36094 0.164063,0.05717 0.29024,0.116367 0.349438,0.173536 0.166094,0.336584 0.32576,0.677904 0.478999,1.02396 0.191802,0.432317 0.37075,0.866662 0.537182,1.305745 0.231381,0.608897 0.438067,1.226587 0.616677,1.856121 l -0.616677,0.769237 -1.365619,1.704573 -1.156227,1.443424 c -0.131928,0 -0.264194,-0.0015 -0.39646,-0.0041 -0.903196,-0.01659 -1.805716,-0.08829 -2.70553,-0.193496 -0.370412,-0.0433 -0.740486,-0.09201 -1.109883,-0.145119 -0.167108,-0.024 -0.33354,-0.04837 -0.499972,-0.07375 l -0.05243,-0.0081 c -0.391047,-0.603143 -0.718837,-1.236057 -0.98303,-1.892992 -0.33354,-0.830804 -0.566274,-1.699496 -0.697863,-2.596265 -0.01387,-0.147489 0.337937,-0.666066 0.697863,-1.150816 0.299374,-0.401871 0.603822,-0.780401 0.708349,-0.903872 z m 6.756722,13.468114 c -0.06461,0.129223 -0.312229,0.538196 -0.560861,0.912332 -0.221233,0.333877 -0.442465,0.640693 -0.535153,0.696169 -0.144782,0.08694 -0.554434,0.130915 -1.017534,0.150195 -0.665727,0.02739 -1.443423,0.0019 -1.710999,-0.02773 -0.388679,-0.0433 -0.713085,-0.09235 -0.994531,-0.158651 -0.448554,-0.105203 -0.788859,-0.253706 -1.109883,-0.490163 -0.167785,-0.123468 -0.330496,-0.270957 -0.499972,-0.448553 -0.154254,-0.161018 -0.31392,-0.346057 -0.489823,-0.561199 -0.124824,-0.152901 -0.326436,-0.427243 -0.545639,-0.754016 -0.517224,-0.769241 -1.140328,-1.829734 -1.125106,-2.279979 0.01116,-0.32238 0.667757,-1.560468 0.85753,-1.891979 0.07916,-0.15899 0.169138,-0.315272 0.267576,-0.468851 0.268253,-0.417768 0.597395,-0.811184 0.932288,-1.165698 l 0.103174,0.01521 c 0.165755,0.02471 0.332864,0.04939 0.499972,0.07273 0.368721,0.05176 0.739471,0.10013 1.109883,0.142752 0.899814,0.102836 1.803687,0.174216 2.70553,0.189776 0.10791,0.0019 0.216158,0.003 0.32373,0.003 0.370074,0.740822 0.783785,1.463379 1.228957,2.166994 0.42961,0.678582 0.887974,1.338558 1.365619,1.978576 l 0.04567,0.06089 -0.04567,0.09912 -0.805435,1.758697 z m 8.641933,-15.715281 c 1.020916,1.005694 1.830072,2.283362 2.392625,3.594857 0.143767,0.336586 0.278739,0.655242 0.379207,0.972546 0.09641,0.302756 0.162372,0.60416 0.178271,0.918418 0.0041,0.09066 0.0047,0.183008 0,0.276369 -0.0074,0.143431 -0.02503,0.289903 -0.05615,0.440776 l -0.122117,-0.134635 -0.868354,-0.958674 -6.71e-4,3.39e-4 c -0.251677,-0.302421 -0.84941,-0.603825 -1.199187,-0.684332 0.0034,-0.689408 -0.152563,-1.370356 -0.39443,-2.035069 -0.161019,-0.446524 -0.364662,-0.889665 -0.595704,-1.318598 -0.17861,-0.330834 -0.373456,-0.652873 -0.57879,-0.963072 l 0.38056,-0.150194 0.19823,0.01691 z m 3.271127,3.224447 c -0.08186,-0.191803 -0.169138,-0.381915 -0.260134,-0.568982 -0.01996,-0.04127 -0.04026,-0.0822 -0.06089,-0.123132 -0.05818,-0.11569 -0.117043,-0.230366 -0.178271,-0.343688 -0.77702,-1.446806 -1.818233,-2.730563 -3.058352,-3.787336 -0.229351,-0.195186 -0.465129,-0.38259 -0.706997,-0.561538 -0.940745,-0.696172 -1.978237,-1.268535 -3.087443,-1.695439 -1.179568,-0.452951 -2.441337,-0.740824 -3.756215,-0.834188 -0.311214,-0.02232 -0.624796,-0.03417 -0.942098,-0.03417 -0.142076,0 -0.282799,0.0031 -0.423521,0.0071 -0.525681,0.01691 -1.04392,0.06393 -1.552687,0.140723 -0.938039,0.142076 -1.843265,0.384281 -2.70553,0.7141 -0.378531,0.145121 -0.749281,0.307155 -1.109883,0.485088 -0.169138,0.08322 -0.33557,0.169814 -0.499972,0.260134 -0.355528,0.194847 -0.701246,0.405255 -1.035462,0.630884 -0.592659,0.400519 -1.150138,0.848735 -1.668377,1.337881 -1.072334,1.012122 -1.973501,2.203529 -2.65648,3.525511 -0.115014,0.222924 -0.223262,0.449569 -0.325759,0.679936 -0.724925,1.626768 -1.127812,3.428425 -1.127812,5.323445 0,1.895697 0.402887,3.69668 1.127812,5.323448 0.102497,0.230028 0.210745,0.456671 0.325759,0.679595 0.682979,1.322323 1.584146,2.513391 2.65648,3.525849 0.518239,0.489149 1.075718,0.937702 1.668377,1.337544 0.334216,0.225969 0.679934,0.436374 1.035462,0.630883 0.164402,0.09066 0.330834,0.176918 0.499972,0.260474 0.360602,0.177931 0.731352,0.340339 1.109883,0.485425 0.862265,0.329412 1.767491,0.571619 2.70553,0.713798 0.508767,0.07679 1.027006,0.124079 1.552687,0.140754 0.140722,0.0046 0.281445,0.0074 0.423521,0.0074 0.317302,0 0.630884,-0.01189 0.942098,-0.03421 1.314878,-0.0937 2.576647,-0.381237 3.756215,-0.834863 1.109206,-0.426534 2.146698,-0.999235 3.087443,-1.695069 0.241868,-0.179284 0.477646,-0.36669 0.706997,-0.561873 1.240119,-1.056777 2.281332,-2.340193 3.058352,-3.786662 0.06123,-0.113659 0.120088,-0.228675 0.178271,-0.344365 0.02064,-0.04093 0.04093,-0.08186 0.06089,-0.123134 0.091,-0.187066 0.178271,-0.376499 0.260134,-0.568638 0.678581,-1.582457 1.054406,-3.325593 1.054406,-5.15634 0,-1.830751 -0.375825,-3.573547 -1.054406,-5.15634"
       style="fill:#000000;fill-opacity:1;fill-rule:nonzero;stroke:none;stroke-width:0.0338276"
       id="path138" />
    <path
       style="fill:#58448f;fill-opacity:1;stroke:#58448f;stroke-width:0.279078;stroke-linecap:round;stroke-miterlimit:4;stroke-dasharray:none;stroke-opacity:1;paint-order:stroke fill markers"
       d="m 17.394512,86.621949 c -0.518725,-0.190215 -1.014744,-0.455482 -1.238585,-0.66238 -0.05584,-0.05161 -0.21117,-0.183782 -0.345181,-0.293707 -0.458438,-0.376052 -0.7313,-0.707019 -0.860764,-1.044071 -0.18414,-0.479402 -0.279945,-1.333768 -0.259768,-2.316616 0.02464,-1.200043 0.201705,-2.001854 0.516385,-2.338273 0.174505,-0.186559 0.523494,-0.382951 1.053371,-0.592785 0.205804,-0.0815 0.479939,-0.162811 0.970837,-0.287957 0.37623,-0.09591 0.69401,-0.171066 0.706178,-0.167011 0.01218,0.0041 0.05176,0.157667 0.08798,0.341364 0.149312,0.757315 0.388499,1.549604 0.664781,2.202021 0.197328,0.465974 0.557739,1.184107 0.772393,1.539019 l 0.157143,0.259825 -0.05654,0.06716 c -0.0311,0.03693 -0.125864,0.148444 -0.210595,0.247791 -0.654401,0.767329 -1.299134,1.891423 -1.696056,2.957081 -0.03219,0.08643 -0.0631,0.15678 -0.06868,0.156344 -0.0056,-3.72e-4 -0.09239,-0.03093 -0.192893,-0.0678 z"
       id="path4227" />
    <path
       style="fill:#58448f;fill-opacity:1;stroke:#58448f;stroke-width:0.279078;stroke-linecap:round;stroke-miterlimit:4;stroke-dasharray:none;stroke-opacity:1;paint-order:stroke fill markers"
       d="m 25.808292,74.732219 c -0.738891,-0.258005 -1.580663,-0.38717 -2.556041,-0.392203 -0.489591,-0.0025 -1.048282,0.01568 -1.24153,0.04047 l -0.351361,0.04507 -0.03847,-0.188644 c -0.162273,-0.79561 -0.06801,-1.918539 0.180368,-2.14873 0.444116,-0.411591 1.941832,-0.985732 2.980122,-1.142409 1.366468,-0.2062 2.541367,0.13054 3.593291,1.029883 0.559691,0.478503 0.614177,0.546324 0.493267,0.613985 -0.545243,0.305136 -1.793202,1.412836 -2.230895,1.980165 -0.132049,0.171161 -0.282173,0.309279 -0.333607,0.306927 -0.05144,-0.0023 -0.274249,-0.06738 -0.495139,-0.144514 z"
       id="path4266" />
    <path
       style="fill:#58448f;fill-opacity:1;stroke:#58448f;stroke-width:0.279078;stroke-linecap:round;stroke-miterlimit:4;stroke-dasharray:none;stroke-opacity:1;paint-order:stroke fill markers"
       d="m 27.558131,87.599933 c -0.730808,-0.989258 -1.600797,-2.358343 -2.119754,-3.33582 l -0.247509,-0.46619 1.509168,-1.888452 c 0.830043,-1.038649 1.513027,-1.894196 1.517743,-1.901214 0.02156,-0.03213 1.321803,0.339043 1.811247,0.517015 0.742863,0.270127 1.723953,0.714182 2.217776,1.003797 l 0.408724,0.239707 0.07921,0.561877 c 0.116177,0.82408 0.08975,2.247383 -0.05682,3.060096 -0.206051,1.142542 -0.157449,1.061819 -0.829858,1.378272 -1.165867,0.548688 -2.121452,0.822929 -3.900234,1.11932 -0.136228,0.0227 -0.188387,-0.01591 -0.389701,-0.288408 z"
       id="path4383" />
    <path
       style="fill:#58448f;fill-opacity:1;stroke:#58448f;stroke-width:0.279078;stroke-linecap:round;stroke-miterlimit:4;stroke-dasharray:none;stroke-opacity:1;paint-order:stroke fill markers"
       d="m 24.20681,94.600035 c -0.510704,-0.09245 -2.283575,-0.653025 -2.642717,-0.835627 -0.344479,-0.17514 -0.854564,-0.530332 -1.067731,-0.743498 -0.170602,-0.170604 -0.182811,-0.206946 -0.149984,-0.446456 0.01966,-0.143408 0.07686,-0.407292 0.12712,-0.586419 l 0.09138,-0.325682 0.238152,0.105218 c 0.449028,0.198385 1.237369,0.394485 1.857482,0.462053 0.626605,0.06827 1.873618,0.03845 2.358127,-0.0564 l 0.244487,-0.04786 0.250807,0.351301 c 0.315459,0.441867 1.04303,1.138961 1.521534,1.457803 l 0.366114,0.243955 -0.423546,0.194111 c -0.232949,0.10676 -0.560497,0.222864 -0.72788,0.258014 -0.410389,0.08618 -1.487567,0.07009 -2.043348,-0.03052 z"
       id="path4422" />
    <g
       aria-label="FUTAPP"
       transform="matrix(0.03382758,0,0,0.03382758,-48.047446,160.77259)"
       id="text7955-36"
       style="font-size:164.625px;line-height:1.25;fill:#ffffff;stroke-width:4.11564">
      <path
         d="m 1948.8748,-1798.3228 v -96.3948 h 66.0484 v 16.2641 h -46.6107 v 22.8095 h 40.2637 v 16.2642 h -40.2637 v 41.057 z"
         style="font-family:Ramabhadra;-inkscape-font-specification:Ramabhadra"
         id="path28447-7" />
      <path
         d="m 2027.2204,-1895.1143 h 19.4376 v 52.1643 q 0,11.7022 0.7934,16.8592 0.7934,5.1569 5.5536,8.7271 4.7603,3.5702 13.289,3.5702 10.5122,0 14.2807,-4.9586 3.9669,-4.9586 3.9669,-23.0079 v -53.3543 h 19.4377 v 50.7759 q 0,17.6525 -2.1818,26.578 -1.9834,8.7271 -10.5122,14.6774 -8.5288,5.9503 -24.3962,5.9503 -15.6692,0 -24.5946,-4.9586 -8.9255,-5.1569 -12.099,-13.289 -2.9751,-8.1321 -2.9751,-28.3631 z"
         style="font-family:Ramabhadra;-inkscape-font-specification:Ramabhadra"
         id="path28449-5" />
      <path
         d="m 2142.8544,-1798.3228 v -80.1307 h -28.5615 v -16.2641 h 76.5606 v 16.2641 h -28.5615 v 80.1307 z"
         style="font-family:Ramabhadra;-inkscape-font-specification:Ramabhadra"
         id="path28451-3" />
      <path
         d="m 2289.8267,-1798.3228 h -21.2227 l -8.3304,-21.8177 h -38.677 l -7.9337,21.8177 h -20.6277 l 37.4869,-96.3948 h 20.6277 z m -35.9001,-38.0819 -13.289,-35.9001 -13.0907,35.9001 z"
         style="font-family:Ramabhadra;-inkscape-font-specification:Ramabhadra"
         id="path28453-5" />
      <path
         d="m 2297.3635,-1798.3228 v -96.3948 h 31.14 q 16.0658,0 23.4045,1.3884 7.537,1.3884 13.289,8.9254 5.9503,7.3387 5.9503,19.2393 0,10.7106 -4.5619,17.8509 -4.5619,6.9421 -12.099,9.9172 -7.3387,2.7768 -24.9912,2.7768 h -12.694 v 36.2968 z m 19.4377,-80.1307 v 27.3714 h 10.7105 q 12.8924,0 18.2476,-2.7768 5.3553,-2.9751 5.3553,-10.9089 0,-7.7354 -4.7602,-10.7105 -4.7603,-2.9752 -20.0327,-2.9752 z"
         style="font-family:Ramabhadra;-inkscape-font-specification:Ramabhadra"
         id="path28455-6" />
      <path
         d="m 2383.4443,-1798.3228 v -96.3948 h 31.1399 q 16.0658,0 23.4046,1.3884 7.537,1.3884 13.289,8.9254 5.9503,7.3387 5.9503,19.2393 0,10.7106 -4.5619,17.8509 -4.5619,6.9421 -12.099,9.9172 -7.3387,2.7768 -24.9912,2.7768 h -12.694 v 36.2968 z m 19.4377,-80.1307 v 27.3714 h 10.7105 q 12.8923,0 18.2476,-2.7768 5.3553,-2.9751 5.3553,-10.9089 0,-7.7354 -4.7603,-10.7105 -4.7602,-2.9752 -20.0326,-2.9752 z"
         style="font-family:Ramabhadra;-inkscape-font-specification:Ramabhadra"
         id="path28457-2" />
    </g>
    <g
       aria-label="GERENCIADOR DE FUTEBOL"
       transform="matrix(0.03382758,0,0,0.03382758,-48.047446,160.77259)"
       id="text7955-3-9"
       style="font-size:38.3666px;line-height:1.25;fill:#ffffff;stroke-width:0.959173">
      <path
         d="m 1973.6152,-1766.938 v 14.7996 h -2.2855 l -0.8992,-3.7092 q -4.0465,4.4586 -9.7041,4.4586 -5.9198,0 -9.6291,-4.3837 -3.3721,-3.9715 -3.3721,-10.1162 0,-6.6692 3.9716,-10.9405 0.562,-0.5994 1.1614,-1.0865 3.3346,-2.6602 8.5051,-2.6602 7.0064,0 10.1162,4.4961 1.2739,1.8359 1.761,4.4211 h -3.7093 q -0.8242,-3.7092 -4.4961,-5.133 -1.686,-0.6369 -3.7092,-0.6369 -5.1705,0.037 -7.9056,3.9715 -2.0982,2.9599 -2.0982,7.3811 0,4.6085 2.3979,8.018 0.2248,0.3372 0.6369,0.7119 3.0724,2.8475 7.0439,2.8475 0.075,0 0.1124,0 4.3462,0 7.0064,-3.1098 1.9109,-2.248 1.9109,-5.4702 v -0.7494 h -8.655 v -3.1098 z"
         style="font-family:Gargi;-inkscape-font-specification:Gargi"
         id="path28577-1" />
      <path
         d="m 1980.9588,-1764.2029 v 9.7416 h 16.7854 v 3.1847 h -20.3823 v -28.4003 h 19.6704 v 3.1847 h -16.0735 v 9.0671 h 15.474 v 3.2222 z"
         style="font-family:Gargi;-inkscape-font-specification:Gargi"
         id="path28579-2" />
      <path
         d="m 2005.0878,-1766.7132 h 8.7673 q 4.7209,0 5.4328,-3.3346 0.1499,-0.6744 0.1499,-1.5361 0,-2.5478 -1.4612,-3.8217 -1.2739,-1.0866 -4.1215,-1.0866 h -8.7673 z m 0,3.1848 v 12.2518 h -3.5969 v -28.4003 h 13.0761 q 6.6318,0 8.2429,4.6834 0.4121,1.2739 0.4121,2.9225 0,3.8217 -2.8101,5.8074 -0.7493,0.4871 -1.686,0.9742 2.4354,1.0491 3.1847,2.5852 0.6744,1.4613 0.6744,4.7959 0,3.7467 0.7494,4.7958 0.3747,0.5245 0.9741,0.9367 v 0.8992 h -4.3836 q -0.7869,-1.8734 -0.7869,-4.646 v -2.5103 q 0,-4.2713 -3.1097,-4.9082 -0.7119,-0.1873 -1.5737,-0.1873 z"
         style="font-family:Gargi;-inkscape-font-specification:Gargi"
         id="path28581-7" />
      <path
         d="m 2031.6522,-1764.2029 v 9.7416 h 16.7853 v 3.1847 h -20.3822 v -28.4003 h 19.6704 v 3.1847 h -16.0735 v 9.0671 h 15.474 v 3.2222 z"
         style="font-family:Gargi;-inkscape-font-specification:Gargi"
         id="path28583-0" />
      <path
         d="m 2074.4024,-1779.6769 v 28.4003 h -4.0839 l -14.6872,-23.0425 v 23.0425 h -3.447 v -28.4003 h 3.9341 l 14.837,23.2298 v -23.2298 z"
         style="font-family:Gargi;-inkscape-font-specification:Gargi"
         id="path28585-9" />
      <path
         d="m 2101.304,-1771.4341 h -3.6718 q -0.5995,-2.8475 -2.0607,-4.2338 -2.1356,-1.7235 -5.4702,-1.7235 -0.075,0 -0.1499,0 -4.9457,0 -7.3811,4.3837 -1.5361,2.7726 -1.5361,7.1563 0,6.5193 3.6718,9.5167 2.2855,1.8734 5.4327,1.8734 0.037,0 0.1124,0 4.2713,0 6.2571,-2.96 0.2248,-0.3372 0.3747,-0.6369 0.9366,-2.2106 1.2739,-4.3462 h 3.7467 q -1.2739,11.0529 -11.6898,11.0529 -5.5452,0 -8.6925,-3.2222 -4.1214,-4.1964 -4.1214,-11.2403 0,-7.0064 3.9716,-11.2402 3.1847,-3.4844 8.9921,-3.4844 8.6925,0 10.7906,8.3552 z"
         style="font-family:Gargi;-inkscape-font-specification:Gargi"
         id="path28587-3" />
      <path
         d="m 2109.322,-1779.6769 v 28.4003 h -3.6718 v -28.4003 z"
         style="font-family:Gargi;-inkscape-font-specification:Gargi"
         id="path28589-6" />
      <path
         d="m 2130.6035,-1762.854 -4.3837,-12.9263 -4.6459,12.9263 z m 1.0116,3.0348 h -10.9404 l -2.9974,8.5426 h -3.8592 l 10.1162,-28.4003 h 4.6834 l 9.9664,28.4003 h -4.0465 z"
         style="font-family:Gargi;-inkscape-font-specification:Gargi"
         id="path28591-0" />
      <path
         d="m 2145.9277,-1754.4613 h 6.7066 q 6.7816,0 8.2429,-7.0814 0.3372,-1.7235 0.3372,-3.934 0,-9.5542 -6.5568,-10.8281 -0.9742,-0.1874 -2.0233,-0.1874 h -6.7066 z m -3.5969,3.1847 v -28.4003 h 10.9405 q 6.332,0 9.4043,5.133 2.1731,3.5969 2.1731,9.0297 0,8.1304 -4.5336,11.8771 -2.8475,2.3605 -7.0438,2.3605 z"
         style="font-family:Gargi;-inkscape-font-specification:Gargi"
         id="path28593-6" />
      <path
         d="m 2181.5217,-1777.4288 q -5.133,0 -7.9056,3.8966 -2.1731,3.0348 -2.1731,7.5684 0,5.9948 3.7092,9.1795 2.6602,2.2855 6.2946,2.2855 0.037,0 0.1124,0 4.9831,0 7.8306,-3.8217 2.2481,-3.0348 2.2481,-7.4935 0,-6.3319 -3.8217,-9.4792 -2.5852,-2.1356 -6.2945,-2.1356 z m 0,-3.1473 q 6.7816,0 10.5283,4.6834 3.2222,4.009 3.2222,10.1537 0,5.6576 -3.2222,9.6666 -0.7868,1.0116 -1.686,1.7609 -3.5594,2.9225 -8.8048,2.9225 -6.4819,0 -10.341,-4.4961 -3.3721,-3.9341 -3.3721,-10.0787 0,-7.0814 4.3087,-11.1278 3.7093,-3.4845 9.3669,-3.4845 z"
         style="font-family:Gargi;-inkscape-font-specification:Gargi"
         id="path28595-2" />
      <path
         d="m 2201.8665,-1766.7132 h 8.7673 q 4.7209,0 5.4328,-3.3346 0.1499,-0.6744 0.1499,-1.5361 0,-2.5478 -1.4612,-3.8217 -1.2739,-1.0866 -4.1215,-1.0866 h -8.7673 z m 0,3.1848 v 12.2518 h -3.5969 v -28.4003 h 13.0761 q 6.6318,0 8.2429,4.6834 0.4121,1.2739 0.4121,2.9225 0,3.8217 -2.8101,5.8074 -0.7493,0.4871 -1.686,0.9742 2.4354,1.0491 3.1847,2.5852 0.6744,1.4613 0.6744,4.7959 0,3.7467 0.7494,4.7958 0.3747,0.5245 0.9741,0.9367 v 0.8992 h -4.3836 q -0.7869,-1.8734 -0.7869,-4.646 v -2.5103 q 0,-4.2713 -3.1097,-4.9082 -0.7119,-0.1873 -1.5737,-0.1873 z"
         style="font-family:Gargi;-inkscape-font-specification:Gargi"
         id="path28597-6" />
      <path
         d="m 2237.7977,-1754.4613 h 6.7067 q 6.7815,0 8.2428,-7.0814 0.3372,-1.7235 0.3372,-3.934 0,-9.5542 -6.5568,-10.8281 -0.9742,-0.1874 -2.0232,-0.1874 h -6.7067 z m -3.5969,3.1847 v -28.4003 h 10.9405 q 6.332,0 9.4043,5.133 2.1731,3.5969 2.1731,9.0297 0,8.1304 -4.5335,11.8771 -2.8476,2.3605 -7.0439,2.3605 z"
         style="font-family:Gargi;-inkscape-font-specification:Gargi"
         id="path28599-1" />
      <path
         d="m 2264.0623,-1764.2029 v 9.7416 h 16.7854 v 3.1847 h -20.3822 v -28.4003 h 19.6703 v 3.1847 h -16.0735 v 9.0671 h 15.4741 v 3.2222 z"
         style="font-family:Gargi;-inkscape-font-specification:Gargi"
         id="path28601-8" />
      <path
         d="m 2297.5582,-1764.2029 v 12.9263 h -3.5969 v -28.4003 h 19.0334 v 3.1847 h -15.4365 v 9.0671 h 13.5632 v 3.2222 z"
         style="font-family:Gargi;-inkscape-font-specification:Gargi"
         id="path28603-7" />
      <path
         d="m 2334.9506,-1780.0516 h 3.6344 v 19.5205 q 0,4.9832 -4.0465,7.4561 -2.8101,1.7235 -6.894,1.7235 -6.4444,0 -9.2919,-3.8592 -1.6111,-2.1731 -1.6111,-5.3204 v -19.5205 h 3.6343 v 19.5205 q 0,2.9974 2.0607,4.6085 2.0607,1.4613 5.208,1.4613 4.8333,0 6.5568,-3.0724 0.7493,-1.3488 0.7493,-2.9974 z"
         style="font-family:Gargi;-inkscape-font-specification:Gargi"
         id="path28605-9" />
      <path
         d="m 2355.2954,-1776.4922 v 25.2156 h -3.6343 v -25.2156 h -9.3294 v -3.1847 h 22.2931 v 3.1847 z"
         style="font-family:Gargi;-inkscape-font-specification:Gargi"
         id="path28607-2" />
      <path
         d="m 2371.9684,-1764.2029 v 9.7416 h 16.7854 v 3.1847 h -20.3823 v -28.4003 h 19.6704 v 3.1847 h -16.0735 v 9.0671 h 15.474 v 3.2222 z"
         style="font-family:Gargi;-inkscape-font-specification:Gargi"
         id="path28609-0" />
      <path
         d="m 2396.1348,-1754.4613 h 8.8423 q 2.5478,0 3.7842,-1.3863 1.3114,-1.3863 1.3114,-3.4845 0,-2.1356 -1.3114,-3.5594 -1.2364,-1.3488 -3.7842,-1.3488 h -8.8423 z m 0,-13.0012 h 7.0064 q 2.8101,0 4.1215,-1.0116 1.5736,-1.199 1.5736,-3.4845 0,-2.323 -1.5736,-3.5219 -1.3114,-1.0117 -4.1215,-1.0117 h -7.0064 z m -3.6343,16.1859 v -28.4003 h 11.54 q 4.009,0 6.1446,1.9858 2.2855,2.0232 2.2855,5.2079 0,4.3837 -3.9341,6.2196 4.084,1.5737 4.9083,4.6835 0.2622,0.9741 0.2622,2.2105 0,3.4096 -2.1731,5.7325 -2.248,2.3605 -6.2195,2.3605 z"
         style="font-family:Gargi;-inkscape-font-specification:Gargi"
         id="path28611-2" />
      <path
         d="m 2429.6307,-1777.4288 q -5.133,0 -7.9056,3.8966 -2.1731,3.0348 -2.1731,7.5684 0,5.9948 3.7092,9.1795 2.6602,2.2855 6.2946,2.2855 0.037,0 0.1124,0 4.9831,0 7.8307,-3.8217 2.248,-3.0348 2.248,-7.4935 0,-6.3319 -3.8217,-9.4792 -2.5852,-2.1356 -6.2945,-2.1356 z m 0,-3.1473 q 6.7816,0 10.5283,4.6834 3.2222,4.009 3.2222,10.1537 0,5.6576 -3.2222,9.6666 -0.7868,1.0116 -1.686,1.7609 -3.5594,2.9225 -8.8048,2.9225 -6.4819,0 -10.341,-4.4961 -3.3721,-3.9341 -3.3721,-10.0787 0,-7.0814 4.3088,-11.1278 3.7092,-3.4845 9.3668,-3.4845 z"
         style="font-family:Gargi;-inkscape-font-specification:Gargi"
         id="path28613-3" />
      <path
         d="m 2450.013,-1779.6769 v 25.2156 h 14.0128 v 3.1847 h -17.6472 v -28.4003 z"
         style="font-family:Gargi;-inkscape-font-specification:Gargi"
         id="path28615-7" />
    </g>
    <path
       d="m 27.100534,64.003939 0.002,0.0044 c -0.231225,-0.550037 -1.033446,-0.580819 -1.282417,-0.0088 l -0.748672,1.723516 -1.86779,0.179286 v 3.38e-4 c -0.602707,0.05683 -0.853504,0.811186 -0.396291,1.215426 l 1.407262,1.244516 -0.398117,1.793539 c -0.164402,0.649489 0.511101,1.096014 1.026464,0.791903 l 1.616316,-0.952922 1.616722,0.952922 7.82e-4,-0.001 c 0.520776,0.307493 1.16668,-0.15493 1.034921,-0.750296 l -0.407385,-1.834131 1.391937,-1.230648 c 0.472673,-0.405931 0.235102,-1.171111 -0.380662,-1.229632 l -1.86793,-0.179295 z m -11.629686,5.60726 v -0.131251 c 0.01123,-0.09438 0.04705,-0.193155 0.112578,-0.298697 0.09766,-0.15696 0.247381,-0.261488 0.412527,-0.305463 v -3.39e-4 l 1.340554,-0.361616 c 0.220285,-0.891019 0.293894,-2.075999 1.177504,-1.858826 0.188014,0.04634 0.339595,0.165078 0.431809,0.318994 l 0.744207,1.141343 c 0.914563,-0.06596 2.070113,-0.363309 2.134182,0.547668 0.03068,0.438406 -0.61945,1.063878 -1.026058,1.567909 0.345143,0.84941 0.984586,1.856457 0.138626,2.198793 -0.170322,0.06867 -0.351638,0.06562 -0.510594,0.0051 l -4.1e-4,3.39e-4 -1.299554,-0.496589 c -0.701145,0.591306 -1.456853,1.50668 -2.044337,0.812538 -0.285301,-0.337261 -0.126447,-1.219146 -0.0933,-1.87371 -0.622225,-0.386987 -1.452861,-0.744206 -1.517742,-1.266166 z m 17.7585,-1.495855 c 0.356205,-0.546992 0.74759,-1.354795 1.175847,-1.460337 0.883577,-0.217173 0.956983,0.967807 1.176862,1.858826 l 1.341264,0.361616 -3.39e-4,6.71e-4 c 0.312906,0.08322 0.493883,0.346394 0.515195,0.623104 v 0.111631 c -0.01624,0.204995 -0.121441,0.404916 -0.326775,0.532446 l -1.180583,0.734397 c 0.03281,0.652196 0.191803,1.536111 -0.0937,1.873372 -0.587247,0.694142 -1.343293,-0.221233 -2.044539,-0.812539 l -1.299318,0.496589 -3.38e-4,-3.38e-4 C 31.925973,72.65094 31.367819,72.085005 31.59717,71.520084 l 0.523989,-1.289169 c -0.406608,-0.503693 -1.056977,-1.129842 -1.026058,-1.567909 0.06366,-0.910977 2.134249,-0.547668 2.134249,-0.547668 v 0"
       style="fill:#ffffff;fill-opacity:1;fill-rule:nonzero;stroke:none;stroke-width:0.0338276"
       id="path98-9"
       sodipodi:nodetypes="cccccccccccccccccccccccccccccccccccccccccccccccccccccsc" />
    <path
       d="m 34.550451,67.2548 -0.983706,1.509049 -1.796583,-0.12956 1.131194,1.401815 -0.678243,1.668377 1.682922,-0.643063 1.376783,1.161301 -0.09133,-1.799289 1.529683,-0.950893 -1.739076,-0.469189 -0.43164,-1.748548"
       style="fill:#58448f;fill-opacity:1;fill-rule:evenodd;stroke:none;stroke-width:0.033743;stroke-miterlimit:4;stroke-dasharray:none"
       id="path100-3" />
    <path
       d="m 18.325727,67.2548 0.983774,1.509049 1.796447,-0.12956 -1.131262,1.401815 0.678413,1.668377 -1.682923,-0.643063 -1.376884,1.161301 0.0913,-1.799289 -1.529785,-0.950893 1.738839,-0.46885 0.43208,-1.748887"
       style="fill:#58448f;fill-opacity:1;fill-rule:evenodd;stroke:none;stroke-width:0.033743;stroke-miterlimit:4;stroke-dasharray:none"
       id="path102-7" />
    <path
       d="m 26.437751,64.200846 0.912296,2.099001 2.278321,0.218527 -1.714618,1.51649 0.495912,2.234312 -1.971911,-1.162316 -1.971506,1.162316 0.495913,-2.234312 -1.714518,-1.51649 2.27822,-0.218527 0.911891,-2.099001"
       style="fill:#58448f;fill-opacity:1;fill-rule:evenodd;stroke:none;stroke-width:0.033743;stroke-miterlimit:4;stroke-dasharray:none"
       id="path104-5" />
  </g>
</svg>
